<?xml version="1.0" encoding="UTF-8" standalone="no"?>
<!DOCTYPE svg PUBLIC "-//W3C//DTD SVG 1.1//EN" "http://www.w3.org/Graphics/SVG/1.1/DTD/svg11.dtd">
<svg width="100%" height="100%" viewBox="0 0 1500 500" version="1.1" xmlns="http://www.w3.org/2000/svg" xmlns:xlink="http://www.w3.org/1999/xlink" xml:space="preserve" xmlns:serif="http://www.serif.com/" style="fill-rule:evenodd;clip-rule:evenodd;stroke-linejoin:round;stroke-miterlimit:2;">
    <g transform="matrix(0.975046,0,0,0.917738,23.5829,23.0746)">
        <rect x="-34.509" y="-34.126" width="1555.79" height="559.337" style="fill:white;"/>
    </g>
    <g transform="matrix(1.76005,0,0,1.76005,-549.127,-732.253)">
        <g id="Layer-1" serif:id="Layer 1">
            <g>
                <g transform="matrix(5.70782,0,0,5.70782,882.999,448.982)">
                    <path d="M0,34.844C0,36.459 -0.981,37.324 -2.942,37.324C-4.788,37.324 -5.769,36.459 -5.769,34.844L-5.769,19.961L-41.073,19.961L-41.073,34.844C-41.073,36.459 -42.054,37.324 -44.073,37.324C-46.034,37.324 -46.958,36.459 -46.958,34.844L-46.958,-0.057C-46.958,-1.614 -45.977,-2.48 -43.958,-2.48C-42.054,-2.48 -41.073,-1.614 -41.073,-0.057L-41.073,15.23L-5.769,15.23L-5.769,-0.057C-5.769,-1.614 -4.788,-2.48 -3,-2.48C-1.038,-2.48 0,-1.614 0,-0.057L0,34.844Z" style="fill:rgb(140,198,63);fill-rule:nonzero;"/>
                </g>
                <g transform="matrix(5.70782,0,0,5.70782,946.707,562.292)">
                    <path d="M0,-4.442L34.497,-4.442C35.882,-4.442 36.516,-3.692 36.516,-2.077C36.516,-0.519 35.882,0.289 34.497,0.289L0,0.289L0,7.673C0,10.961 3.173,12.691 9.519,12.691L34.497,12.691C35.94,12.691 36.689,13.441 36.689,14.941C36.689,16.556 35.94,17.364 34.497,17.364L9.346,17.364C-0.865,17.364 -5.884,14.191 -5.884,7.903L-5.884,-12.172C-5.884,-18.633 -0.692,-21.806 9.865,-21.806L16.672,-21.806C18.056,-21.806 18.749,-21.114 18.749,-19.498C18.749,-17.941 18.056,-17.249 16.672,-17.249L12.114,-17.249C3.981,-17.249 0,-15.518 0,-12.172L0,-4.442Z" style="fill:rgb(140,198,63);fill-rule:nonzero;"/>
                </g>
                <g transform="matrix(5.70782,0,0,5.70782,584.07,552.99)">
                    <path d="M0,-1.195C-0.001,-1.204 -0.002,-1.213 -0.003,-1.221C-0.01,-1.3 -0.02,-1.377 -0.033,-1.452L-0.033,-1.453C-0.035,-1.463 -0.038,-1.473 -0.04,-1.483C-0.042,-1.493 -0.044,-1.503 -0.046,-1.513C-0.058,-1.574 -0.071,-1.634 -0.088,-1.692C-0.094,-1.716 -0.103,-1.739 -0.11,-1.763C-0.126,-1.815 -0.144,-1.867 -0.164,-1.916C-0.165,-1.919 -0.166,-1.921 -0.167,-1.923C-0.172,-1.937 -0.179,-1.95 -0.184,-1.963C-0.188,-1.972 -0.192,-1.98 -0.195,-1.989C-0.216,-2.035 -0.237,-2.08 -0.261,-2.123C-0.274,-2.147 -0.288,-2.171 -0.302,-2.194C-0.327,-2.235 -0.353,-2.275 -0.38,-2.314C-0.384,-2.319 -0.387,-2.323 -0.391,-2.327C-0.4,-2.34 -0.409,-2.353 -0.418,-2.365C-0.422,-2.37 -0.426,-2.375 -0.43,-2.38C-0.459,-2.418 -0.49,-2.453 -0.522,-2.488C-0.54,-2.509 -0.56,-2.529 -0.579,-2.549C-0.613,-2.583 -0.649,-2.615 -0.685,-2.646C-0.693,-2.652 -0.7,-2.658 -0.707,-2.664C-0.718,-2.673 -0.729,-2.683 -0.74,-2.692C-0.743,-2.694 -0.746,-2.697 -0.75,-2.7C-0.789,-2.731 -0.831,-2.76 -0.873,-2.788C-0.896,-2.803 -0.917,-2.819 -0.941,-2.833C-0.988,-2.862 -1.037,-2.889 -1.088,-2.915C-1.099,-2.921 -1.11,-2.926 -1.121,-2.932C-1.13,-2.937 -1.139,-2.942 -1.149,-2.947C-1.15,-2.947 -1.152,-2.948 -1.153,-2.949C-1.212,-2.977 -1.275,-3.003 -1.339,-3.028C-1.355,-3.034 -1.37,-3.041 -1.386,-3.048C-1.413,-3.057 -1.45,-3.059 -1.478,-3.068C-1.707,-3.145 -1.952,-3.208 -2.234,-3.241C-2.235,-3.241 -2.236,-3.242 -2.236,-3.242L-2.237,-3.242C-2.241,-3.242 -2.245,-3.242 -2.249,-3.243C-2.255,-3.243 -2.261,-3.244 -2.267,-3.244C-2.346,-3.253 -2.425,-3.262 -2.508,-3.267C-2.523,-3.268 -2.539,-3.268 -2.555,-3.269C-2.612,-3.272 -2.673,-3.273 -2.732,-3.275C-2.799,-3.277 -2.863,-3.281 -2.931,-3.281C-3.007,-3.281 -3.076,-3.277 -3.149,-3.274C-3.204,-3.273 -3.261,-3.272 -3.315,-3.269C-3.332,-3.268 -3.352,-3.268 -3.369,-3.267L-13.671,-3.267C-15.31,-3.267 -16.642,-1.938 -16.642,-0.296C-16.642,1.345 -15.31,2.675 -13.671,2.675L-5.931,2.675L-5.931,9.584C-5.931,12.697 -8.816,14.313 -14.584,14.313L-30.332,14.313C-30.478,14.313 -30.615,14.309 -30.758,14.308C-30.988,14.305 -31.219,14.303 -31.441,14.297C-31.617,14.292 -31.786,14.283 -31.957,14.275C-32.147,14.267 -32.336,14.258 -32.519,14.247C-32.689,14.236 -32.854,14.223 -33.018,14.21C-33.193,14.196 -33.366,14.18 -33.535,14.163C-33.691,14.147 -33.845,14.13 -33.996,14.112C-34.166,14.091 -34.331,14.068 -34.494,14.044C-34.632,14.024 -34.771,14.004 -34.905,13.982C-35.084,13.951 -35.255,13.917 -35.425,13.883C-35.531,13.861 -35.642,13.842 -35.744,13.819C-36.002,13.761 -36.249,13.698 -36.485,13.631C-36.578,13.604 -36.664,13.574 -36.754,13.545C-36.903,13.499 -37.05,13.452 -37.19,13.401C-37.286,13.366 -37.376,13.329 -37.468,13.292C-37.592,13.242 -37.713,13.191 -37.829,13.138C-37.917,13.097 -38.001,13.056 -38.085,13.014C-38.195,12.957 -38.301,12.899 -38.405,12.839C-38.48,12.795 -38.555,12.752 -38.627,12.706C-38.732,12.639 -38.83,12.568 -38.926,12.496C-38.983,12.453 -39.044,12.412 -39.098,12.368C-39.239,12.253 -39.371,12.134 -39.49,12.008C-39.52,11.977 -39.544,11.942 -39.573,11.91C-39.661,11.811 -39.746,11.711 -39.821,11.607C-39.861,11.552 -39.894,11.495 -39.929,11.439C-39.985,11.351 -40.039,11.263 -40.086,11.172C-40.118,11.109 -40.147,11.045 -40.176,10.98C-40.209,10.904 -40.238,10.826 -40.266,10.747C-40.317,10.604 -40.357,10.456 -40.389,10.305C-40.402,10.246 -40.418,10.189 -40.428,10.129C-40.462,9.916 -40.484,9.697 -40.484,9.469L-40.484,-10.895C-40.484,-14.01 -36.562,-15.625 -28.601,-15.625L-24.102,-15.625C-22.659,-15.625 -22.025,-16.375 -22.025,-17.932C-22.025,-18.122 -22.035,-18.298 -22.054,-18.462C-22.06,-18.51 -22.071,-18.55 -22.078,-18.595C-22.096,-18.706 -22.114,-18.816 -22.141,-18.914C-22.156,-18.968 -22.178,-19.014 -22.195,-19.064C-22.224,-19.143 -22.252,-19.223 -22.288,-19.294C-22.313,-19.343 -22.344,-19.385 -22.373,-19.43C-22.412,-19.49 -22.45,-19.551 -22.496,-19.604C-22.531,-19.645 -22.573,-19.68 -22.612,-19.716C-22.661,-19.762 -22.711,-19.807 -22.767,-19.845C-22.813,-19.877 -22.865,-19.904 -22.916,-19.931C-22.976,-19.963 -23.037,-19.994 -23.103,-20.019C-23.161,-20.041 -23.223,-20.06 -23.286,-20.077C-23.356,-20.097 -23.429,-20.115 -23.506,-20.128C-23.576,-20.141 -23.648,-20.15 -23.723,-20.158C-23.764,-20.162 -23.799,-20.171 -23.841,-20.174C-23.914,-20.179 -23.989,-20.18 -24.066,-20.181C-24.074,-20.181 -24.082,-20.181 -24.089,-20.182L-30.332,-20.182C-36.754,-20.182 -41.218,-19.078 -43.78,-16.863C-45.498,-15.377 -46.369,-13.397 -46.369,-10.896L-46.369,9.469C-46.369,9.892 -46.342,10.3 -46.295,10.695C-46.28,10.82 -46.252,10.936 -46.232,11.059C-46.19,11.323 -46.144,11.586 -46.08,11.837C-46.045,11.976 -45.998,12.107 -45.956,12.242C-45.886,12.465 -45.812,12.686 -45.724,12.898C-45.668,13.033 -45.604,13.163 -45.541,13.293C-45.444,13.492 -45.339,13.688 -45.225,13.877C-45.187,13.939 -45.16,14.008 -45.12,14.07C-45.052,14.175 -44.978,14.276 -44.904,14.378C-44.881,14.41 -44.86,14.442 -44.837,14.474C-44.623,14.758 -44.387,15.029 -44.128,15.287C-44.073,15.341 -44.008,15.389 -43.951,15.443C-43.744,15.637 -43.533,15.828 -43.299,16.006C-43.216,16.07 -43.12,16.127 -43.032,16.188C-42.81,16.347 -42.585,16.504 -42.339,16.649C-42.238,16.709 -42.124,16.761 -42.019,16.819C-41.769,16.956 -41.517,17.091 -41.246,17.214C-41.131,17.267 -41.005,17.313 -40.885,17.363C-40.605,17.48 -40.323,17.597 -40.021,17.701C-39.893,17.746 -39.754,17.785 -39.621,17.827C-39.311,17.926 -38.997,18.024 -38.665,18.11C-38.523,18.147 -38.372,18.178 -38.225,18.213C-37.885,18.294 -37.539,18.372 -37.177,18.44C-37.02,18.47 -36.855,18.494 -36.694,18.521C-36.326,18.583 -35.952,18.642 -35.563,18.691C-35.507,18.698 -35.457,18.709 -35.401,18.715C-35.114,18.75 -34.816,18.779 -34.519,18.807C-34.318,18.826 -34.115,18.843 -33.91,18.858C-33.516,18.889 -33.113,18.914 -32.7,18.933C-32.526,18.941 -32.35,18.949 -32.171,18.955C-31.649,18.973 -31.117,18.985 -30.565,18.986C-30.545,18.986 -30.526,18.987 -30.505,18.987L-14.583,18.987C-14.545,18.987 -14.511,18.985 -14.473,18.985C-13.968,18.983 -13.478,18.973 -13.001,18.954C-12.772,18.945 -12.552,18.93 -12.329,18.917C-12.143,18.907 -11.95,18.9 -11.768,18.887C-11.708,18.883 -11.655,18.873 -11.595,18.868C-10.237,18.76 -8.997,18.575 -7.878,18.311C-7.754,18.282 -7.636,18.25 -7.516,18.219C-7.073,18.105 -6.649,17.979 -6.246,17.839C-6.138,17.802 -6.027,17.767 -5.922,17.728C-5.437,17.548 -4.975,17.352 -4.549,17.132C-4.526,17.12 -4.505,17.106 -4.482,17.093C-4.092,16.888 -3.732,16.663 -3.393,16.425C-3.296,16.357 -3.204,16.286 -3.111,16.215C-2.836,16.004 -2.579,15.782 -2.34,15.547C-2.273,15.482 -2.201,15.42 -2.137,15.353C-1.852,15.051 -1.593,14.733 -1.365,14.394C-1.322,14.331 -1.289,14.262 -1.248,14.198C-1.069,13.914 -0.91,13.616 -0.769,13.306C-0.744,13.252 -0.708,13.204 -0.685,13.149C-0.625,13.009 -0.57,12.865 -0.518,12.72C-0.514,12.709 -0.51,12.698 -0.506,12.687C-0.5,12.672 -0.496,12.657 -0.491,12.642C-0.394,12.361 -0.314,12.067 -0.245,11.767C-0.223,11.67 -0.205,11.571 -0.186,11.472C-0.14,11.24 -0.103,11.002 -0.074,10.759C-0.062,10.658 -0.048,10.558 -0.039,10.455C-0.009,10.118 0.011,9.773 0.012,9.416L0.012,-0.916C0.012,-1.012 0.008,-1.105 0,-1.195" style="fill:rgb(140,198,63);fill-rule:nonzero;"/>
                </g>
            </g>
        </g>
    </g>
</svg>
