<?xml version="1.0" encoding="UTF-8" standalone="no"?>
<!DOCTYPE svg PUBLIC "-//W3C//DTD SVG 1.1//EN" "http://www.w3.org/Graphics/SVG/1.1/DTD/svg11.dtd">
<svg width="100%" height="100%" viewBox="0 0 1500 1500" version="1.1" xmlns="http://www.w3.org/2000/svg" xmlns:xlink="http://www.w3.org/1999/xlink" xml:space="preserve" xmlns:serif="http://www.serif.com/" style="fill-rule:evenodd;clip-rule:evenodd;stroke-linejoin:round;stroke-miterlimit:2;">
    <g id="Layer-1" serif:id="Layer 1">
        <rect x="0" y="0" width="1500" height="1500" stroke="transparent" fill-opacity="0" style="fill:rgb(242,242,242);"/>
        <g transform="matrix(-1,0,0,1,750.647,190.545)">
            <rect x="253.481" y="652.391" width="243.685" height="4.673" style="fill:rgb(140,198,63);"/>
        </g>
        <g transform="matrix(1,0,0,1,560.934,827.85)">
            <path d="M0,34.844C0,36.459 -0.981,37.324 -2.942,37.324C-4.788,37.324 -5.769,36.459 -5.769,34.844L-5.769,19.961L-41.073,19.961L-41.073,34.844C-41.073,36.459 -42.054,37.324 -44.073,37.324C-46.034,37.324 -46.958,36.459 -46.958,34.844L-46.958,-0.057C-46.958,-1.614 -45.977,-2.48 -43.958,-2.48C-42.054,-2.48 -41.073,-1.614 -41.073,-0.057L-41.073,15.23L-5.769,15.23L-5.769,-0.057C-5.769,-1.614 -4.788,-2.48 -3,-2.48C-1.038,-2.48 0,-1.614 0,-0.057L0,34.844Z" style="fill:rgb(140,198,63);fill-rule:nonzero;"/>
        </g>
        <g transform="matrix(1,0,0,1,607.891,854.387)">
            <path d="M0,-18.172C0,-22.152 -3.231,-24.114 -9.576,-24.114L-23.594,-24.114C-30.401,-24.114 -33.747,-22.152 -33.747,-18.172L-33.747,0.173C-33.747,3.922 -30.401,5.826 -23.594,5.826L-9.922,5.826C-3.346,5.826 0,3.922 0,0.173L0,-18.172ZM5.826,0.23C5.826,7.037 0.058,10.499 -11.537,10.499L-22.383,10.499C-33.92,10.499 -39.631,7.095 -39.631,0.288L-39.631,-18.518C-39.631,-25.325 -33.92,-28.671 -22.383,-28.671L-11.537,-28.671C0.058,-28.671 5.826,-25.325 5.826,-18.518L5.826,0.23Z" style="fill:rgb(140,198,63);fill-rule:nonzero;"/>
        </g>
        <g transform="matrix(1,0,0,1,684.787,827.85)">
            <path d="M0,34.844C0,36.459 -0.981,37.324 -3.057,37.324C-4.788,37.324 -5.769,36.459 -5.769,34.844L-5.769,6.231L-27.748,35.248C-28.786,36.69 -30.055,37.324 -31.67,37.324C-33.459,37.324 -34.728,36.69 -35.766,35.248L-58.091,6.289L-58.091,34.844C-58.091,36.459 -59.014,37.324 -60.918,37.324C-62.879,37.324 -63.802,36.459 -63.802,34.844L-63.802,0.866C-63.802,-1.384 -62.764,-2.48 -60.514,-2.48C-59.014,-2.48 -57.687,-1.787 -56.649,-0.461L-31.613,31.556L-7.038,-0.749C-6.173,-1.845 -4.788,-2.48 -3.461,-2.48C-1.154,-2.48 0,-1.326 0,0.982L0,34.844Z" style="fill:rgb(140,198,63);fill-rule:nonzero;"/>
        </g>
        <g transform="matrix(1,0,0,1,698.054,847.522)">
            <path d="M0,-4.442L34.497,-4.442C35.882,-4.442 36.516,-3.692 36.516,-2.077C36.516,-0.519 35.882,0.289 34.497,0.289L0,0.289L0,7.673C0,10.961 3.173,12.691 9.519,12.691L34.497,12.691C35.94,12.691 36.689,13.441 36.689,14.941C36.689,16.556 35.94,17.364 34.497,17.364L9.346,17.364C-0.865,17.364 -5.884,14.191 -5.884,7.903L-5.884,-12.172C-5.884,-18.633 -0.692,-21.806 9.865,-21.806L16.672,-21.806C18.056,-21.806 18.749,-21.114 18.749,-19.498C18.749,-17.941 18.056,-17.249 16.672,-17.249L12.114,-17.249C3.981,-17.249 0,-15.518 0,-12.172L0,-4.442Z" style="fill:rgb(140,198,63);fill-rule:nonzero;"/>
        </g>
        <g transform="matrix(1,0,0,1,788.391,829.293)">
            <path d="M0,31.958C0,34.612 -1.615,35.881 -3.519,35.881C-4.327,35.881 -5.365,35.592 -6.23,34.727L-40.9,3.749L-40.9,33.4C-40.9,35.015 -41.823,35.881 -43.784,35.881C-45.688,35.881 -46.611,35.015 -46.611,33.4L-46.611,-0.231C-46.611,-2.654 -44.823,-3.75 -43.034,-3.75C-41.939,-3.75 -40.9,-3.462 -40.035,-2.597L-5.711,27.747L-5.711,-1.501C-5.711,-3.058 -4.73,-3.923 -2.711,-3.923C-0.808,-3.923 0,-3.058 0,-1.501L0,31.958Z" style="fill:rgb(140,198,63);fill-rule:nonzero;"/>
        </g>
        <g transform="matrix(1,0,0,1,801.716,847.522)">
            <path d="M0,-4.442L34.497,-4.442C35.882,-4.442 36.516,-3.692 36.516,-2.077C36.516,-0.519 35.882,0.289 34.497,0.289L0,0.289L0,7.673C0,10.961 3.173,12.691 9.519,12.691L34.497,12.691C35.94,12.691 36.689,13.441 36.689,14.941C36.689,16.556 35.94,17.364 34.497,17.364L9.346,17.364C-0.865,17.364 -5.884,14.191 -5.884,7.903L-5.884,-12.172C-5.884,-18.633 -0.692,-21.806 9.865,-21.806L16.672,-21.806C18.056,-21.806 18.749,-21.114 18.749,-19.498C18.749,-17.941 18.056,-17.249 16.672,-17.249L12.114,-17.249C3.981,-17.249 0,-15.518 0,-12.172L0,-4.442Z" style="fill:rgb(140,198,63);fill-rule:nonzero;"/>
        </g>
        <g transform="matrix(1,0,0,1,886.17,855.482)">
            <path d="M0,-20.074C0,-23.478 -3.231,-25.208 -9.634,-25.208L-34.843,-25.208L-34.843,-10.787L-8.595,-10.787C-2.884,-10.787 0,-12.171 0,-14.998L0,-20.074ZM5.769,-15.517C5.769,-9.344 0.808,-6.114 -9.115,-6.114L-23.479,-6.114L1.327,4.731C2.365,5.251 2.826,5.943 2.826,6.808C2.826,8.25 1.788,9.692 0.288,9.692C-0.058,9.692 -0.462,9.577 -0.866,9.346L-34.843,-6.518L-34.843,7.212C-34.843,8.827 -35.824,9.692 -37.728,9.692C-39.747,9.692 -40.727,8.827 -40.727,7.212L-40.727,-27.977C-40.727,-29.189 -40.093,-29.766 -38.824,-29.766L-10.499,-29.766C0.346,-29.766 5.769,-26.477 5.769,-19.786L5.769,-15.517Z" style="fill:rgb(140,198,63);fill-rule:nonzero;"/>
        </g>
        <g transform="matrix(1,0,0,1,944.479,845.899)">
            <path d="M0,-1.195C-0.001,-1.204 -0.002,-1.213 -0.003,-1.221C-0.01,-1.3 -0.02,-1.377 -0.033,-1.452L-0.033,-1.453C-0.035,-1.463 -0.038,-1.473 -0.04,-1.483C-0.042,-1.493 -0.044,-1.503 -0.046,-1.513C-0.058,-1.574 -0.071,-1.634 -0.088,-1.692C-0.094,-1.716 -0.103,-1.739 -0.11,-1.763C-0.126,-1.815 -0.144,-1.867 -0.164,-1.916C-0.165,-1.919 -0.166,-1.921 -0.167,-1.923C-0.172,-1.937 -0.179,-1.95 -0.184,-1.963C-0.188,-1.972 -0.192,-1.98 -0.195,-1.989C-0.216,-2.035 -0.237,-2.08 -0.261,-2.123C-0.274,-2.147 -0.288,-2.171 -0.302,-2.194C-0.327,-2.235 -0.353,-2.275 -0.38,-2.314C-0.384,-2.319 -0.387,-2.323 -0.391,-2.327C-0.4,-2.34 -0.409,-2.353 -0.418,-2.365C-0.422,-2.37 -0.426,-2.375 -0.43,-2.38C-0.459,-2.418 -0.49,-2.453 -0.522,-2.488C-0.54,-2.509 -0.56,-2.529 -0.579,-2.549C-0.613,-2.583 -0.649,-2.615 -0.685,-2.646C-0.693,-2.652 -0.7,-2.658 -0.707,-2.664C-0.718,-2.673 -0.729,-2.683 -0.74,-2.692C-0.743,-2.694 -0.746,-2.697 -0.75,-2.7C-0.789,-2.731 -0.831,-2.76 -0.873,-2.788C-0.896,-2.803 -0.917,-2.819 -0.941,-2.833C-0.988,-2.862 -1.037,-2.889 -1.088,-2.915C-1.099,-2.921 -1.11,-2.926 -1.121,-2.932C-1.13,-2.937 -1.139,-2.942 -1.149,-2.947C-1.15,-2.947 -1.152,-2.948 -1.153,-2.949C-1.212,-2.977 -1.275,-3.003 -1.339,-3.028C-1.355,-3.034 -1.37,-3.041 -1.386,-3.048C-1.413,-3.057 -1.45,-3.059 -1.478,-3.068C-1.707,-3.145 -1.952,-3.208 -2.234,-3.241C-2.235,-3.241 -2.236,-3.242 -2.236,-3.242L-2.237,-3.242C-2.241,-3.242 -2.245,-3.242 -2.249,-3.243C-2.255,-3.243 -2.261,-3.244 -2.267,-3.244C-2.346,-3.253 -2.425,-3.262 -2.508,-3.267C-2.523,-3.268 -2.539,-3.268 -2.555,-3.269C-2.612,-3.272 -2.673,-3.273 -2.732,-3.275C-2.799,-3.277 -2.863,-3.281 -2.931,-3.281C-3.007,-3.281 -3.076,-3.277 -3.149,-3.274C-3.204,-3.273 -3.261,-3.272 -3.315,-3.269C-3.332,-3.268 -3.352,-3.268 -3.369,-3.267L-13.671,-3.267C-15.31,-3.267 -16.642,-1.938 -16.642,-0.296C-16.642,1.345 -15.31,2.675 -13.671,2.675L-5.931,2.675L-5.931,9.584C-5.931,12.697 -8.816,14.313 -14.584,14.313L-30.332,14.313C-30.478,14.313 -30.615,14.309 -30.758,14.308C-30.988,14.305 -31.219,14.303 -31.441,14.297C-31.617,14.292 -31.786,14.283 -31.957,14.275C-32.147,14.267 -32.336,14.258 -32.519,14.247C-32.689,14.236 -32.854,14.223 -33.018,14.21C-33.193,14.196 -33.366,14.18 -33.535,14.163C-33.691,14.147 -33.845,14.13 -33.996,14.112C-34.166,14.091 -34.331,14.068 -34.494,14.044C-34.632,14.024 -34.771,14.004 -34.905,13.982C-35.084,13.951 -35.255,13.917 -35.425,13.883C-35.531,13.861 -35.642,13.842 -35.744,13.819C-36.002,13.761 -36.249,13.698 -36.485,13.631C-36.578,13.604 -36.664,13.574 -36.754,13.545C-36.903,13.499 -37.05,13.452 -37.19,13.401C-37.286,13.366 -37.376,13.329 -37.468,13.292C-37.592,13.242 -37.713,13.191 -37.829,13.138C-37.917,13.097 -38.001,13.056 -38.085,13.014C-38.195,12.957 -38.301,12.899 -38.405,12.839C-38.48,12.795 -38.555,12.752 -38.627,12.706C-38.732,12.639 -38.83,12.568 -38.926,12.496C-38.983,12.453 -39.044,12.412 -39.098,12.368C-39.239,12.253 -39.371,12.134 -39.49,12.008C-39.52,11.977 -39.544,11.942 -39.573,11.91C-39.661,11.811 -39.746,11.711 -39.821,11.607C-39.861,11.552 -39.894,11.495 -39.929,11.439C-39.985,11.351 -40.039,11.263 -40.086,11.172C-40.118,11.109 -40.147,11.045 -40.176,10.98C-40.209,10.904 -40.238,10.826 -40.266,10.747C-40.317,10.604 -40.357,10.456 -40.389,10.305C-40.402,10.246 -40.418,10.189 -40.428,10.129C-40.462,9.916 -40.484,9.697 -40.484,9.469L-40.484,-10.895C-40.484,-14.01 -36.562,-15.625 -28.601,-15.625L-24.102,-15.625C-22.659,-15.625 -22.025,-16.375 -22.025,-17.932C-22.025,-18.122 -22.035,-18.298 -22.054,-18.462C-22.06,-18.51 -22.071,-18.55 -22.078,-18.595C-22.096,-18.706 -22.114,-18.816 -22.141,-18.914C-22.156,-18.968 -22.178,-19.014 -22.195,-19.064C-22.224,-19.143 -22.252,-19.223 -22.288,-19.294C-22.313,-19.343 -22.344,-19.385 -22.373,-19.43C-22.412,-19.49 -22.45,-19.551 -22.496,-19.604C-22.531,-19.645 -22.573,-19.68 -22.612,-19.716C-22.661,-19.762 -22.711,-19.807 -22.767,-19.845C-22.813,-19.877 -22.865,-19.904 -22.916,-19.931C-22.976,-19.963 -23.037,-19.994 -23.103,-20.019C-23.161,-20.041 -23.223,-20.06 -23.286,-20.077C-23.356,-20.097 -23.429,-20.115 -23.506,-20.128C-23.576,-20.141 -23.648,-20.15 -23.723,-20.158C-23.764,-20.162 -23.799,-20.171 -23.841,-20.174C-23.914,-20.179 -23.989,-20.18 -24.066,-20.181C-24.074,-20.181 -24.082,-20.181 -24.089,-20.182L-30.332,-20.182C-36.754,-20.182 -41.218,-19.078 -43.78,-16.863C-45.498,-15.377 -46.369,-13.397 -46.369,-10.896L-46.369,9.469C-46.369,9.892 -46.342,10.3 -46.295,10.695C-46.28,10.82 -46.252,10.936 -46.232,11.059C-46.19,11.323 -46.144,11.586 -46.08,11.837C-46.045,11.976 -45.998,12.107 -45.956,12.242C-45.886,12.465 -45.812,12.686 -45.724,12.898C-45.668,13.033 -45.604,13.163 -45.541,13.293C-45.444,13.492 -45.339,13.688 -45.225,13.877C-45.187,13.939 -45.16,14.008 -45.12,14.07C-45.052,14.175 -44.978,14.276 -44.904,14.378C-44.881,14.41 -44.86,14.442 -44.837,14.474C-44.623,14.758 -44.387,15.029 -44.128,15.287C-44.073,15.341 -44.008,15.389 -43.951,15.443C-43.744,15.637 -43.533,15.828 -43.299,16.006C-43.216,16.07 -43.12,16.127 -43.032,16.188C-42.81,16.347 -42.585,16.504 -42.339,16.649C-42.238,16.709 -42.124,16.761 -42.019,16.819C-41.769,16.956 -41.517,17.091 -41.246,17.214C-41.131,17.267 -41.005,17.313 -40.885,17.363C-40.605,17.48 -40.323,17.597 -40.021,17.701C-39.893,17.746 -39.754,17.785 -39.621,17.827C-39.311,17.926 -38.997,18.024 -38.665,18.11C-38.523,18.147 -38.372,18.178 -38.225,18.213C-37.885,18.294 -37.539,18.372 -37.177,18.44C-37.02,18.47 -36.855,18.494 -36.694,18.521C-36.326,18.583 -35.952,18.642 -35.563,18.691C-35.507,18.698 -35.457,18.709 -35.401,18.715C-35.114,18.75 -34.816,18.779 -34.519,18.807C-34.318,18.826 -34.115,18.843 -33.91,18.858C-33.516,18.889 -33.113,18.914 -32.7,18.933C-32.526,18.941 -32.35,18.949 -32.171,18.955C-31.649,18.973 -31.117,18.985 -30.565,18.986C-30.545,18.986 -30.526,18.987 -30.505,18.987L-14.583,18.987C-14.545,18.987 -14.511,18.985 -14.473,18.985C-13.968,18.983 -13.478,18.973 -13.001,18.954C-12.772,18.945 -12.552,18.93 -12.329,18.917C-12.143,18.907 -11.95,18.9 -11.768,18.887C-11.708,18.883 -11.655,18.873 -11.595,18.868C-10.237,18.76 -8.997,18.575 -7.878,18.311C-7.754,18.282 -7.636,18.25 -7.516,18.219C-7.073,18.105 -6.649,17.979 -6.246,17.839C-6.138,17.802 -6.027,17.767 -5.922,17.728C-5.437,17.548 -4.975,17.352 -4.549,17.132C-4.526,17.12 -4.505,17.106 -4.482,17.093C-4.092,16.888 -3.732,16.663 -3.393,16.425C-3.296,16.357 -3.204,16.286 -3.111,16.215C-2.836,16.004 -2.579,15.782 -2.34,15.547C-2.273,15.482 -2.201,15.42 -2.137,15.353C-1.852,15.051 -1.593,14.733 -1.365,14.394C-1.322,14.331 -1.289,14.262 -1.248,14.198C-1.069,13.914 -0.91,13.616 -0.769,13.306C-0.744,13.252 -0.708,13.204 -0.685,13.149C-0.625,13.009 -0.57,12.865 -0.518,12.72C-0.514,12.709 -0.51,12.698 -0.506,12.687C-0.5,12.672 -0.496,12.657 -0.491,12.642C-0.394,12.361 -0.314,12.067 -0.245,11.767C-0.223,11.67 -0.205,11.571 -0.186,11.472C-0.14,11.24 -0.103,11.002 -0.074,10.759C-0.062,10.658 -0.048,10.558 -0.039,10.455C-0.009,10.118 0.011,9.773 0.012,9.416L0.012,-0.916C0.012,-1.012 0.008,-1.105 0,-1.195" style="fill:rgb(140,198,63);fill-rule:nonzero;"/>
        </g>
        <g transform="matrix(1,0,0,1,963.7,846.945)">
            <path d="M0,-3.23L17.306,-20.652C17.883,-21.171 18.518,-21.459 19.325,-21.459C20.825,-21.459 22.325,-20.19 22.325,-18.921C22.325,-18.402 22.152,-17.825 21.633,-17.306L3,1.327L2.942,15.807C2.769,17.422 1.788,18.229 0.058,18.229C-1.904,18.229 -2.827,17.364 -2.827,15.749L-2.827,1.327L-21.517,-17.306C-22.036,-17.825 -22.325,-18.402 -22.325,-18.921C-22.325,-20.19 -20.883,-21.402 -19.383,-21.402C-18.748,-21.402 -17.999,-21.171 -17.422,-20.652L0,-3.23Z" style="fill:rgb(140,198,63);fill-rule:nonzero;"/>
        </g>
        <g transform="matrix(-1,0,0,1,2249.36,190.545)">
            <rect x="1002.84" y="652.391" width="243.685" height="4.673" style="fill:rgb(140,198,63);"/>
        </g>
        <g transform="matrix(1,0,0,1,436.182,715.711)">
            <path d="M0,-4.708C-0.003,-4.744 -0.009,-4.777 -0.013,-4.812C-0.041,-5.123 -0.079,-5.426 -0.13,-5.72C-0.145,-5.802 -0.165,-5.879 -0.181,-5.96C-0.229,-6.201 -0.281,-6.438 -0.345,-6.666C-0.372,-6.762 -0.404,-6.853 -0.434,-6.946C-0.498,-7.151 -0.566,-7.354 -0.644,-7.549C-0.684,-7.646 -0.728,-7.74 -0.77,-7.835C-0.851,-8.016 -0.936,-8.193 -1.028,-8.364C-1.08,-8.46 -1.136,-8.552 -1.191,-8.645C-1.288,-8.806 -1.39,-8.964 -1.498,-9.116C-1.562,-9.206 -1.628,-9.293 -1.695,-9.379C-1.809,-9.525 -1.929,-9.666 -2.055,-9.803C-2.129,-9.884 -2.204,-9.965 -2.283,-10.043C-2.416,-10.175 -2.556,-10.302 -2.701,-10.426C-2.784,-10.497 -2.866,-10.569 -2.953,-10.637C-3.109,-10.758 -3.273,-10.873 -3.441,-10.985C-3.529,-11.044 -3.615,-11.105 -3.706,-11.162C-3.892,-11.276 -4.088,-11.381 -4.287,-11.484C-4.373,-11.528 -4.455,-11.576 -4.543,-11.618C-4.777,-11.731 -5.024,-11.833 -5.276,-11.931C-5.339,-11.955 -5.398,-11.983 -5.462,-12.007C-6.447,-12.369 -7.563,-12.624 -8.811,-12.772C-8.851,-12.776 -8.894,-12.779 -8.934,-12.783C-9.244,-12.818 -9.555,-12.852 -9.881,-12.873C-9.94,-12.877 -10.006,-12.876 -10.066,-12.88C-10.293,-12.893 -10.532,-12.896 -10.766,-12.903C-11.028,-12.911 -11.279,-12.929 -11.551,-12.929C-11.847,-12.929 -12.122,-12.91 -12.408,-12.901C-12.626,-12.894 -12.85,-12.892 -13.061,-12.88C-13.13,-12.876 -13.207,-12.878 -13.276,-12.873L-53.866,-12.873C-60.326,-12.873 -65.574,-7.634 -65.574,-1.166C-65.574,5.302 -60.326,10.541 -53.866,10.541L-23.368,10.541L-23.368,37.764C-23.368,50.031 -34.736,56.399 -57.463,56.399L-119.514,56.399C-142.141,56.399 -155.063,51.709 -158.55,42.733C-159.195,41.071 -159.517,39.262 -159.517,37.31L-159.517,-42.926C-159.517,-55.201 -144.061,-61.565 -112.694,-61.565L-94.965,-61.565C-89.283,-61.565 -86.782,-64.52 -86.782,-70.657C-86.782,-76.411 -88.981,-79.168 -93.94,-79.489C-94.225,-79.508 -94.523,-79.514 -94.826,-79.517C-94.874,-79.517 -94.917,-79.521 -94.965,-79.521L-119.514,-79.521C-161.793,-79.521 -182.703,-67.475 -182.703,-42.931L-182.703,37.305C-182.703,44.338 -181.067,50.383 -177.783,55.438C-177.514,55.852 -177.222,56.253 -176.931,56.654C-176.828,56.796 -176.735,56.944 -176.63,57.084C-169.893,66.013 -157.524,71.56 -139.486,73.744C-133.646,74.451 -127.226,74.813 -120.193,74.813L-57.463,74.813C-53.562,74.813 -49.871,74.677 -46.369,74.419C-22.922,72.692 -8.381,65.184 -2.697,51.81C-2.462,51.258 -2.248,50.692 -2.043,50.12C-2.02,50.056 -1.993,49.996 -1.97,49.932C-0.625,46.094 0.047,41.809 0.047,37.076L0.047,-3.607C0.047,-3.986 0.029,-4.352 0,-4.708" style="fill:rgb(140,198,63);fill-rule:nonzero;"/>
        </g>
        <g transform="matrix(1,0,0,1,626.924,753.474)">
            <path d="M0,-79.098C0,-92.509 -12.728,-99.328 -37.958,-99.328L-137.286,-99.328L-137.286,-42.504L-33.867,-42.504C-11.365,-42.504 0,-47.958 0,-59.096L0,-79.098ZM22.73,-61.142C22.73,-36.821 3.182,-24.093 -35.912,-24.093L-92.51,-24.093L5.228,18.639C9.319,20.685 11.138,23.412 11.138,26.821C11.138,32.504 7.047,38.186 1.137,38.186C-0.227,38.186 -1.818,37.732 -3.409,36.823L-137.286,-25.684L-137.286,28.412C-137.286,34.777 -141.151,38.186 -148.652,38.186C-156.607,38.186 -160.471,34.777 -160.471,28.412L-160.471,-110.237C-160.471,-115.011 -157.971,-117.284 -152.97,-117.284L-41.368,-117.284C1.364,-117.284 22.73,-104.328 22.73,-77.962L22.73,-61.142Z" style="fill:rgb(140,198,63);fill-rule:nonzero;"/>
        </g>
        <g transform="matrix(1,0,0,1,833.077,723.021)">
            <path d="M0,49.087L-98.417,49.087C-123.417,49.087 -135.923,42.278 -135.923,29.32L-135.923,0.22L0,0.22C5.454,0.22 7.955,-2.964 7.955,-9.101C7.955,-15.459 5.454,-18.412 0,-18.412L-159.106,-18.412L-159.106,30.224C-159.106,55.004 -139.328,67.499 -99.1,67.499L0,67.499C5.686,67.499 8.638,64.326 8.638,57.957C8.638,52.051 5.686,49.087 0,49.087" style="fill:rgb(140,198,63);fill-rule:nonzero;"/>
        </g>
        <g transform="matrix(1,0,0,1,1026.51,723.021)">
            <path d="M0,49.087L-98.428,49.087C-123.428,49.087 -135.923,42.278 -135.923,29.32L-135.923,0.22L0,0.22C5.454,0.22 7.955,-2.964 7.955,-9.101C7.955,-15.459 5.454,-18.412 0,-18.412L-159.106,-18.412L-159.106,30.224C-159.106,55.004 -139.339,67.499 -99.1,67.499L0,67.499C5.675,67.499 8.638,64.326 8.638,57.957C8.638,52.051 5.675,49.087 0,49.087" style="fill:rgb(140,198,63);fill-rule:nonzero;"/>
        </g>
        <g transform="matrix(1,0,0,1,1246.52,650.281)">
            <path d="M0,125.922C0,136.378 -6.365,141.378 -13.865,141.378C-17.047,141.378 -21.138,140.242 -24.549,136.833L-161.153,14.775L-161.153,131.604C-161.153,137.969 -164.79,141.378 -172.518,141.378C-180.019,141.378 -183.656,137.969 -183.656,131.604L-183.656,-0.909C-183.656,-10.455 -176.609,-14.774 -169.563,-14.774C-165.244,-14.774 -161.153,-13.638 -157.744,-10.228L-22.503,109.33L-22.503,-5.91C-22.503,-12.047 -18.638,-15.456 -10.683,-15.456C-3.182,-15.456 0,-12.047 0,-5.91L0,125.922Z" style="fill:rgb(140,198,63);fill-rule:nonzero;"/>
        </g>
        <g transform="matrix(-0.531989,-0.846751,-0.846751,0.531989,703.668,637.784)">
            <path d="M-7.874,-14.246C-5.633,-8.7 -4.08,-3.48 -3.216,1.426L-7.874,4.352L-16.252,-8.983L-7.874,-14.246Z" style="fill:rgb(0,113,188);fill-rule:nonzero;"/>
        </g>
        <g transform="matrix(1,0,0,1,699.081,643.642)">
            <path d="M0,3.124L0,0C-1.803,0.961 -3.485,2.003 -5.053,3.124L0,3.124Z" style="fill:rgb(0,113,188);fill-rule:nonzero;"/>
        </g>
        <g transform="matrix(1,0,0,1,745.849,634.826)">
            <path d="M0,11.94L15.748,11.94L15.748,0L0.27,0C0.179,0 0.091,0.002 0,0.002L0,11.94Z" style="fill:rgb(0,113,188);fill-rule:nonzero;"/>
        </g>
        <g transform="matrix(1,0,0,1,766.688,634.826)">
            <path d="M0,11.94L19.768,11.94C18.878,4.319 14.071,0 6.25,0L0,0L0,11.94Z" style="fill:rgb(0,113,188);fill-rule:nonzero;"/>
        </g>
        <g transform="matrix(-0.601848,-0.79861,-0.79861,0.601848,723.407,638.115)">
            <path d="M-7.874,-15.794C-4.597,-11.194 -1.751,-6.767 0.658,-2.505L-7.874,3.926L-17.352,-8.651L-7.874,-15.794Z" style="fill:rgb(0,113,188);fill-rule:nonzero;"/>
        </g>
        <g transform="matrix(0,1,1,0,782.549,647.934)">
            <path d="M3.921,-15.862L15.862,-15.862L15.862,-9.612C15.862,-1.848 11.441,3.064 3.921,3.921L3.921,-15.862Z" style="fill:rgb(0,113,188);fill-rule:nonzero;"/>
        </g>
        <g transform="matrix(1,0,0,1,699.081,663.796)">
            <path d="M0,-11.94L-10.868,-11.94C-11.811,-10.925 -12.695,-9.868 -13.508,-8.76L-19.931,0L0,0L0,-11.94Z" style="fill:rgb(0,113,188);fill-rule:nonzero;"/>
        </g>
        <g transform="matrix(-1,0,0,1,1507.45,-184.348)">
            <rect x="745.849" y="836.204" width="15.748" height="11.94" style="fill:rgb(0,113,188);"/>
        </g>
        <g transform="matrix(-1,0,0,1,1424.09,-184.348)">
            <rect x="704.172" y="836.204" width="15.748" height="11.94" style="fill:rgb(0,113,188);"/>
        </g>
        <g transform="matrix(-1,0,0,1,1465.77,-184.348)">
            <rect x="725.011" y="836.204" width="15.748" height="11.94" style="fill:rgb(0,113,188);"/>
        </g>
        <g transform="matrix(-0.531965,-0.846767,-0.846767,0.531965,897.866,637.783)">
            <path d="M-7.874,-14.246C-5.634,-8.701 -4.081,-3.481 -3.216,1.426L-7.875,4.352L-16.252,-8.983L-7.874,-14.246Z" style="fill:rgb(0,113,188);fill-rule:nonzero;"/>
        </g>
        <g transform="matrix(1,0,0,1,893.28,643.642)">
            <path d="M0,3.124L0,0C-1.803,0.961 -3.485,2.003 -5.053,3.124L0,3.124Z" style="fill:rgb(0,113,188);fill-rule:nonzero;"/>
        </g>
        <g transform="matrix(1,0,0,1,940.047,634.826)">
            <path d="M0,11.94L15.748,11.94L15.748,0L0.27,0C0.179,0 0.091,0.002 0,0.002L0,11.94Z" style="fill:rgb(0,113,188);fill-rule:nonzero;"/>
        </g>
        <g transform="matrix(1,0,0,1,960.886,634.826)">
            <path d="M0,11.94L19.767,11.94C18.877,4.319 14.071,0 6.25,0L0,0L0,11.94Z" style="fill:rgb(0,113,188);fill-rule:nonzero;"/>
        </g>
        <g transform="matrix(-0.601848,-0.79861,-0.79861,0.601848,917.605,638.115)">
            <path d="M-7.874,-15.794C-4.597,-11.194 -1.751,-6.767 0.658,-2.505L-7.874,3.926L-17.352,-8.651L-7.874,-15.794Z" style="fill:rgb(0,113,188);fill-rule:nonzero;"/>
        </g>
        <g transform="matrix(0,1,1,0,976.747,647.934)">
            <path d="M3.921,-15.862L15.862,-15.862L15.862,-9.612C15.862,-1.848 11.441,3.064 3.921,3.921L3.921,-15.862Z" style="fill:rgb(0,113,188);fill-rule:nonzero;"/>
        </g>
        <g transform="matrix(1,0,0,1,893.28,663.796)">
            <path d="M0,-11.94L-10.868,-11.94C-11.811,-10.925 -12.696,-9.868 -13.508,-8.76L-19.931,0L0,0L0,-11.94Z" style="fill:rgb(0,113,188);fill-rule:nonzero;"/>
        </g>
        <g transform="matrix(-1,0,0,1,1895.84,-184.348)">
            <rect x="940.048" y="836.204" width="15.748" height="11.94" style="fill:rgb(0,113,188);"/>
        </g>
        <g transform="matrix(-1,0,0,1,1812.49,-184.348)">
            <rect x="898.37" y="836.204" width="15.749" height="11.94" style="fill:rgb(0,113,188);"/>
        </g>
        <g transform="matrix(-1,0,0,1,1854.17,-184.348)">
            <rect x="919.209" y="836.204" width="15.748" height="11.94" style="fill:rgb(0,113,188);"/>
        </g>
    </g>
</svg>
