<?xml version="1.0"?>
<svg width="1200" height="350" xmlns="http://www.w3.org/2000/svg" xmlns:svg="http://www.w3.org/2000/svg" clip-rule="evenodd" fill-rule="evenodd" stroke-linejoin="round" version="1.1" xml:space="preserve">

 <g class="layer">
  <title>Layer 1</title>
  <g id="Layer-1" transform="translate(-4, 2) matrix(1, 0, 0, 1, -144, -577)">
   <rect fill="rgb(242,242,242)" fill-opacity="0" height="1500" id="svg_1" stroke="transparent" width="1500" x="0" y="0"/>
   <g id="svg_2" transform="matrix(-1,0,0,1,750.647,190.545)">
    <rect fill="rgb(140,198,63)" height="4.67" id="svg_3" width="243.69" x="253.48" y="652.39"/>
   </g>
   <g id="svg_4" transform="matrix(1,0,0,1,560.934,827.85)">
    <path d="m0,34.84c0,1.62 -0.98,2.48 -2.94,2.48c-1.85,0 -2.83,-0.86 -2.83,-2.48l0,-14.88l-35.3,0l0,14.88c0,1.62 -0.98,2.48 -3,2.48c-1.96,0 -2.89,-0.86 -2.89,-2.48l0,-34.9c0,-1.55 0.98,-2.42 3,-2.42c1.91,0 2.89,0.87 2.89,2.42l0,15.29l35.3,0l0,-15.29c0,-1.55 0.98,-2.42 2.77,-2.42c1.96,0 3,0.87 3,2.42l0,34.9z" fill="rgb(140,198,63)" fill-rule="nonzero" id="svg_5"/>
   </g>
   <g id="svg_6" transform="matrix(1,0,0,1,607.891,854.387)">
    <path d="m0,-18.17c0,-3.98 -3.23,-5.94 -9.58,-5.94l-14.01,0c-6.81,0 -10.16,1.96 -10.16,5.94l0,18.34c0,3.75 3.35,5.66 10.16,5.66l13.67,0c6.57,0 9.92,-1.91 9.92,-5.66l0,-18.34zm5.83,18.4c0,6.81 -5.77,10.27 -17.37,10.27l-10.84,0c-11.54,0 -17.25,-3.41 -17.25,-10.21l0,-18.81c0,-6.8 5.71,-10.15 17.25,-10.15l10.84,0c11.6,0 17.37,3.35 17.37,10.15l0,18.75z" fill="rgb(140,198,63)" fill-rule="nonzero" id="svg_7"/>
   </g>
   <g id="svg_8" transform="matrix(1,0,0,1,684.787,827.85)">
    <path d="m0,34.84c0,1.62 -0.98,2.48 -3.06,2.48c-1.73,0 -2.71,-0.86 -2.71,-2.48l0,-28.61l-21.98,29.02c-1.04,1.44 -2.3,2.07 -3.92,2.07c-1.79,0 -3.06,-0.63 -4.1,-2.07l-22.32,-28.96l0,28.55c0,1.62 -0.92,2.48 -2.83,2.48c-1.96,0 -2.88,-0.86 -2.88,-2.48l0,-33.97c0,-2.25 1.04,-3.35 3.29,-3.35c1.5,0 2.82,0.69 3.86,2.02l25.04,32.02l24.57,-32.31c0.87,-1.1 2.25,-1.73 3.58,-1.73c2.31,0 3.46,1.15 3.46,3.46l0,33.86z" fill="rgb(140,198,63)" fill-rule="nonzero" id="svg_9"/>
   </g>
   <g id="svg_10" transform="matrix(1,0,0,1,698.054,847.522)">
    <path d="m0,-4.44l34.5,0c1.38,0 2.02,0.75 2.02,2.36c0,1.56 -0.64,2.37 -2.02,2.37l-34.5,0l0,7.38c0,3.29 3.17,5.02 9.52,5.02l24.98,0c1.44,0 2.19,0.75 2.19,2.25c0,1.62 -0.75,2.42 -2.19,2.42l-25.15,0c-10.22,0 -15.23,-3.17 -15.23,-9.46l0,-20.07c0,-6.46 5.19,-9.64 15.75,-9.64l6.8,0c1.39,0 2.08,0.7 2.08,2.31c0,1.56 -0.69,2.25 -2.08,2.25l-4.56,0c-8.13,0 -12.11,1.73 -12.11,5.08l0,7.73z" fill="rgb(140,198,63)" fill-rule="nonzero" id="svg_11"/>
   </g>
   <g id="svg_12" transform="matrix(1,0,0,1,788.391,829.293)">
    <path d="m0,31.96c0,2.65 -1.61,3.92 -3.52,3.92c-0.81,0 -1.85,-0.29 -2.71,-1.15l-34.67,-30.98l0,29.65c0,1.62 -0.92,2.48 -2.88,2.48c-1.91,0 -2.83,-0.86 -2.83,-2.48l0,-33.63c0,-2.42 1.79,-3.52 3.58,-3.52c1.09,0 2.13,0.29 3,1.15l34.32,30.35l0,-29.25c0,-1.56 0.98,-2.42 3,-2.42c1.9,0 2.71,0.86 2.71,2.42l0,33.46z" fill="rgb(140,198,63)" fill-rule="nonzero" id="svg_13"/>
   </g>
   <g id="svg_14" transform="matrix(1,0,0,1,801.716,847.522)">
    <path d="m0,-4.44l34.5,0c1.38,0 2.02,0.75 2.02,2.36c0,1.56 -0.64,2.37 -2.02,2.37l-34.5,0l0,7.38c0,3.29 3.17,5.02 9.52,5.02l24.98,0c1.44,0 2.19,0.75 2.19,2.25c0,1.62 -0.75,2.42 -2.19,2.42l-25.15,0c-10.22,0 -15.23,-3.17 -15.23,-9.46l0,-20.07c0,-6.46 5.19,-9.64 15.75,-9.64l6.8,0c1.39,0 2.08,0.7 2.08,2.31c0,1.56 -0.69,2.25 -2.08,2.25l-4.56,0c-8.13,0 -12.11,1.73 -12.11,5.08l0,7.73z" fill="rgb(140,198,63)" fill-rule="nonzero" id="svg_15"/>
   </g>
   <g id="svg_16" transform="matrix(1,0,0,1,886.17,855.482)">
    <path d="m0,-20.07c0,-3.41 -3.23,-5.14 -9.63,-5.14l-25.21,0l0,14.42l26.25,0c5.71,0 8.59,-1.38 8.59,-4.21l0,-5.07zm5.77,4.55c0,6.18 -4.96,9.41 -14.89,9.41l-14.36,0l24.81,10.84c1.04,0.52 1.5,1.21 1.5,2.08c0,1.44 -1.04,2.88 -2.54,2.88c-0.35,0 -0.75,-0.11 -1.16,-0.34l-33.97,-15.87l0,13.73c0,1.62 -0.98,2.48 -2.89,2.48c-2.02,0 -3,-0.86 -3,-2.48l0,-35.19c0,-1.21 0.64,-1.79 1.91,-1.79l28.32,0c10.85,0 16.27,3.29 16.27,9.98l0,4.27z" fill="rgb(140,198,63)" fill-rule="nonzero" id="svg_17"/>
   </g>
   <g id="svg_18" transform="matrix(1,0,0,1,944.479,845.899)">
    <path d="m0,-1.2c0,0 0,-0.01 0,-0.02c-0.01,-0.08 -0.02,-0.16 -0.03,-0.23l0,0c0,-0.01 -0.01,-0.02 -0.01,-0.03c0,-0.01 0,-0.02 -0.01,-0.03c-0.01,-0.06 -0.02,-0.12 -0.04,-0.18c0,-0.03 -0.01,-0.05 -0.02,-0.07c-0.02,-0.05 -0.03,-0.11 -0.05,-0.16c-0.01,0 -0.01,0 -0.01,0c0,-0.02 -0.01,-0.03 -0.01,-0.04c-0.01,-0.01 -0.01,-0.02 -0.02,-0.03c-0.02,-0.05 -0.04,-0.09 -0.06,-0.13c-0.01,-0.03 -0.03,-0.05 -0.04,-0.07c-0.03,-0.04 -0.05,-0.08 -0.08,-0.12c0,-0.01 -0.01,-0.01 -0.01,-0.02c-0.01,-0.01 -0.02,-0.02 -0.03,-0.04c0,0 -0.01,-0.01 -0.01,-0.01c-0.03,-0.04 -0.06,-0.07 -0.09,-0.11c-0.02,-0.02 -0.04,-0.04 -0.06,-0.06c-0.03,-0.03 -0.07,-0.07 -0.1,-0.1c-0.01,0 -0.02,-0.01 -0.03,-0.01c-0.01,-0.01 -0.02,-0.02 -0.03,-0.03c0,0 -0.01,-0.01 -0.01,-0.01c-0.04,-0.03 -0.08,-0.06 -0.12,-0.09c-0.03,-0.01 -0.05,-0.03 -0.07,-0.04c-0.05,-0.03 -0.1,-0.06 -0.15,-0.09c-0.01,0 -0.02,-0.01 -0.03,-0.01c-0.01,-0.01 -0.02,-0.01 -0.03,-0.02c0,0 0,0 0,0c-0.06,-0.03 -0.12,-0.05 -0.19,-0.08c-0.01,0 -0.03,-0.01 -0.05,-0.02c-0.02,-0.01 -0.06,-0.01 -0.09,-0.02c-0.23,-0.08 -0.47,-0.14 -0.75,-0.17c0,0 -0.01,0 -0.01,0l0,0c0,0 -0.01,0 -0.01,0c0,0 -0.01,0 -0.02,0c-0.08,-0.01 -0.15,-0.02 -0.24,-0.03c-0.01,0 -0.03,0 -0.05,0c-0.05,0 -0.11,0 -0.17,0c-0.07,-0.01 -0.13,-0.01 -0.2,-0.01c-0.08,0 -0.15,0 -0.22,0.01c-0.05,0 -0.11,0 -0.16,0c-0.02,0 -0.04,0 -0.06,0l-10.3,0c-1.64,0 -2.97,1.33 -2.97,2.97c0,1.64 1.33,2.97 2.97,2.97l7.74,0l0,6.91c0,3.12 -2.89,4.73 -8.65,4.73l-15.75,0c-0.15,0 -0.28,0 -0.43,0c-0.23,-0.01 -0.46,-0.01 -0.68,-0.01c-0.18,-0.01 -0.35,-0.02 -0.52,-0.02c-0.19,-0.01 -0.38,-0.02 -0.56,-0.03c-0.17,-0.01 -0.33,-0.03 -0.5,-0.04c-0.17,-0.01 -0.35,-0.03 -0.51,-0.05c-0.16,-0.01 -0.31,-0.03 -0.47,-0.05c-0.17,-0.02 -0.33,-0.04 -0.49,-0.07c-0.14,-0.02 -0.28,-0.04 -0.42,-0.06c-0.17,-0.03 -0.35,-0.06 -0.51,-0.1c-0.11,-0.02 -0.22,-0.04 -0.32,-0.06c-0.26,-0.06 -0.51,-0.12 -0.74,-0.19c-0.1,-0.03 -0.18,-0.06 -0.27,-0.09c-0.15,-0.04 -0.3,-0.09 -0.44,-0.14c-0.1,-0.03 -0.19,-0.07 -0.28,-0.11c-0.12,-0.05 -0.24,-0.1 -0.36,-0.15c-0.09,-0.04 -0.17,-0.08 -0.26,-0.13c-0.11,-0.05 -0.21,-0.11 -0.32,-0.17c-0.07,-0.05 -0.14,-0.09 -0.22,-0.13c-0.1,-0.07 -0.2,-0.14 -0.3,-0.21c-0.05,-0.05 -0.11,-0.09 -0.17,-0.13c-0.14,-0.12 -0.27,-0.24 -0.39,-0.36c-0.03,-0.03 -0.05,-0.07 -0.08,-0.1c-0.09,-0.1 -0.18,-0.2 -0.25,-0.3c-0.04,-0.06 -0.07,-0.12 -0.11,-0.17c-0.05,-0.09 -0.11,-0.18 -0.16,-0.27c-0.03,-0.06 -0.06,-0.13 -0.09,-0.19c-0.03,-0.08 -0.06,-0.15 -0.09,-0.23c-0.05,-0.15 -0.09,-0.29 -0.12,-0.45c-0.01,-0.05 -0.03,-0.11 -0.04,-0.17c-0.03,-0.21 -0.05,-0.43 -0.05,-0.66l0,-20.36c0,-3.12 3.92,-4.74 11.88,-4.74l4.5,0c1.44,0 2.08,-0.75 2.08,-2.3c0,-0.19 -0.02,-0.37 -0.03,-0.53c-0.01,-0.05 -0.02,-0.09 -0.03,-0.13c-0.02,-0.12 -0.03,-0.23 -0.06,-0.32c-0.02,-0.06 -0.04,-0.1 -0.06,-0.15c-0.02,-0.08 -0.05,-0.16 -0.09,-0.23c-0.02,-0.05 -0.05,-0.1 -0.08,-0.14c-0.04,-0.06 -0.08,-0.12 -0.13,-0.17c-0.03,-0.04 -0.07,-0.08 -0.11,-0.12c-0.05,-0.04 -0.1,-0.09 -0.16,-0.12c-0.04,-0.04 -0.09,-0.06 -0.15,-0.09c-0.06,-0.03 -0.12,-0.06 -0.18,-0.09c-0.06,-0.02 -0.12,-0.04 -0.19,-0.06c-0.07,-0.02 -0.14,-0.03 -0.22,-0.05c-0.07,-0.01 -0.14,-0.02 -0.21,-0.03c-0.04,0 -0.08,-0.01 -0.12,-0.01c-0.07,-0.01 -0.15,-0.01 -0.23,-0.01c0,0 -0.01,0 -0.02,0l-6.24,0c-6.42,0 -10.89,1.1 -13.45,3.32c-1.72,1.48 -2.59,3.46 -2.59,5.96l0,20.37c0,0.42 0.03,0.83 0.07,1.23c0.02,0.12 0.05,0.24 0.07,0.36c0.04,0.26 0.09,0.53 0.15,0.78c0.03,0.14 0.08,0.27 0.12,0.4c0.07,0.22 0.15,0.45 0.24,0.66c0.05,0.13 0.12,0.26 0.18,0.39c0.1,0.2 0.2,0.4 0.31,0.59c0.04,0.06 0.07,0.13 0.11,0.19c0.07,0.11 0.14,0.21 0.22,0.31c0.02,0.03 0.04,0.06 0.06,0.09c0.22,0.29 0.45,0.56 0.71,0.82c0.06,0.05 0.12,0.1 0.18,0.15c0.21,0.2 0.42,0.39 0.65,0.57c0.08,0.06 0.18,0.12 0.27,0.18c0.22,0.16 0.44,0.31 0.69,0.46c0.1,0.06 0.22,0.11 0.32,0.17c0.25,0.14 0.5,0.27 0.77,0.39c0.12,0.06 0.24,0.1 0.37,0.15c0.28,0.12 0.56,0.24 0.86,0.34c0.13,0.05 0.27,0.09 0.4,0.13c0.31,0.1 0.62,0.19 0.96,0.28c0.14,0.04 0.29,0.07 0.43,0.1c0.35,0.08 0.69,0.16 1.05,0.23c0.16,0.03 0.33,0.05 0.49,0.08c0.36,0.06 0.74,0.12 1.13,0.17c0.05,0.01 0.1,0.02 0.16,0.02c0.29,0.04 0.58,0.07 0.88,0.1c0.2,0.02 0.4,0.03 0.61,0.05c0.39,0.03 0.8,0.05 1.21,0.07c0.17,0.01 0.35,0.02 0.53,0.02c0.52,0.02 1.05,0.03 1.6,0.04c0.02,0 0.04,0 0.07,0l15.92,0c0.04,0 0.07,-0.01 0.11,-0.01c0.5,0 0.99,-0.01 1.47,-0.03c0.23,0 0.45,-0.02 0.67,-0.03c0.19,-0.01 0.38,-0.02 0.56,-0.03c0.06,-0.01 0.12,-0.02 0.17,-0.02c1.36,-0.11 2.6,-0.3 3.72,-0.56c0.13,-0.03 0.24,-0.06 0.36,-0.09c0.45,-0.11 0.87,-0.24 1.27,-0.38c0.11,-0.04 0.22,-0.07 0.33,-0.11c0.48,-0.18 0.95,-0.38 1.37,-0.6c0.02,-0.01 0.05,-0.02 0.07,-0.04c0.39,-0.2 0.75,-0.43 1.09,-0.66c0.09,-0.07 0.19,-0.14 0.28,-0.22c0.27,-0.21 0.53,-0.43 0.77,-0.66c0.07,-0.07 0.14,-0.13 0.2,-0.2c0.29,-0.3 0.55,-0.62 0.78,-0.96c0.04,-0.06 0.07,-0.13 0.11,-0.19c0.18,-0.29 0.34,-0.58 0.48,-0.89c0.03,-0.06 0.06,-0.11 0.09,-0.16c0.05,-0.14 0.11,-0.28 0.16,-0.43c0.01,-0.01 0.01,-0.02 0.01,-0.03c0.01,-0.02 0.01,-0.03 0.02,-0.05c0.1,-0.28 0.18,-0.57 0.24,-0.87c0.03,-0.1 0.04,-0.2 0.06,-0.3c0.05,-0.23 0.09,-0.47 0.12,-0.71c0.01,-0.1 0.02,-0.2 0.03,-0.3c0.03,-0.34 0.05,-0.69 0.05,-1.04l0,-10.34c0,-0.09 0,-0.18 -0.01,-0.28" fill="rgb(140,198,63)" fill-rule="nonzero" id="svg_19"/>
   </g>
   <g id="svg_20" transform="matrix(1,0,0,1,963.7,846.945)">
    <path d="m0,-3.23l17.31,-17.42c0.57,-0.52 1.21,-0.81 2.01,-0.81c1.5,0 3,1.27 3,2.54c0,0.52 -0.17,1.1 -0.69,1.61l-18.63,18.64l-0.06,14.48c-0.17,1.61 -1.15,2.42 -2.88,2.42c-1.96,0 -2.89,-0.87 -2.89,-2.48l0,-14.42l-18.69,-18.64c-0.52,-0.51 -0.8,-1.09 -0.8,-1.61c0,-1.27 1.44,-2.48 2.94,-2.48c0.63,0 1.38,0.23 1.96,0.75l17.42,17.42z" fill="rgb(140,198,63)" fill-rule="nonzero" id="svg_21"/>
   </g>
   <g id="svg_22" transform="matrix(-1,0,0,1,2249.36,190.545)">
    <rect fill="rgb(140,198,63)" height="4.67" id="svg_23" width="243.69" x="1002.84" y="652.39"/>
   </g>
   <g id="svg_24" transform="matrix(1,0,0,1,436.182,715.711)">
    <path d="m0,-4.71c0,-0.03 -0.01,-0.07 -0.01,-0.1c-0.03,-0.31 -0.07,-0.62 -0.12,-0.91c-0.02,-0.08 -0.04,-0.16 -0.05,-0.24c-0.05,-0.24 -0.1,-0.48 -0.16,-0.71c-0.03,-0.09 -0.06,-0.18 -0.09,-0.28c-0.07,-0.2 -0.14,-0.4 -0.21,-0.6c-0.04,-0.1 -0.09,-0.19 -0.13,-0.28c-0.08,-0.19 -0.17,-0.36 -0.26,-0.53c-0.05,-0.1 -0.11,-0.19 -0.16,-0.28c-0.1,-0.17 -0.2,-0.32 -0.31,-0.48c-0.06,-0.09 -0.13,-0.17 -0.19,-0.26c-0.12,-0.15 -0.24,-0.29 -0.37,-0.42c-0.07,-0.08 -0.14,-0.16 -0.22,-0.24c-0.14,-0.14 -0.28,-0.26 -0.42,-0.39c-0.08,-0.07 -0.17,-0.14 -0.25,-0.21c-0.16,-0.12 -0.32,-0.23 -0.49,-0.34c-0.09,-0.06 -0.18,-0.13 -0.27,-0.18c-0.18,-0.12 -0.38,-0.22 -0.58,-0.32c-0.08,-0.05 -0.17,-0.1 -0.25,-0.14c-0.24,-0.11 -0.48,-0.21 -0.74,-0.31c-0.06,-0.03 -0.12,-0.05 -0.18,-0.08c-0.99,-0.36 -2.1,-0.61 -3.35,-0.76c-0.04,-0.01 -0.08,-0.01 -0.12,-0.01c-0.31,-0.04 -0.62,-0.07 -0.95,-0.09c-0.06,-0.01 -0.13,-0.01 -0.19,-0.01c-0.22,-0.01 -0.46,-0.02 -0.7,-0.02c-0.26,-0.01 -0.51,-0.03 -0.78,-0.03c-0.3,0 -0.57,0.02 -0.86,0.03c-0.22,0.01 -0.44,0.01 -0.65,0.02c-0.07,0 -0.15,0 -0.22,0.01l-40.59,0c-6.46,0 -11.7,5.24 -11.7,11.7c0,6.47 5.24,11.71 11.7,11.71l30.5,0l0,27.22c0,12.27 -11.37,18.64 -34.09,18.64l-62.05,0c-22.63,0 -35.55,-4.69 -39.04,-13.67c-0.64,-1.66 -0.97,-3.47 -0.97,-5.42l0,-80.24c0,-12.27 15.46,-18.63 46.83,-18.63l17.72,0c5.69,0 8.19,-2.96 8.19,-9.1c0,-5.75 -2.2,-8.51 -7.16,-8.83c-0.28,-0.02 -0.58,-0.02 -0.89,-0.03c-0.04,0 -0.09,0 -0.14,0l-24.54,0c-42.28,0 -63.19,12.05 -63.19,36.59l0,80.23c0,7.04 1.63,13.08 4.92,18.14c0.27,0.41 0.56,0.81 0.85,1.21c0.1,0.15 0.19,0.29 0.3,0.43c6.74,8.93 19.11,14.48 37.14,16.66c5.84,0.71 12.26,1.07 19.3,1.07l62.73,0c3.9,0 7.59,-0.13 11.09,-0.39c23.45,-1.73 37.99,-9.24 43.67,-22.61c0.24,-0.55 0.45,-1.12 0.66,-1.69c0.02,-0.06 0.05,-0.12 0.07,-0.19c1.34,-3.84 2.02,-8.12 2.02,-12.85l0,-40.69c0,-0.38 -0.02,-0.74 -0.05,-1.1" fill="rgb(140,198,63)" fill-rule="nonzero" id="svg_25"/>
   </g>
   <g id="svg_26" transform="matrix(1,0,0,1,626.924,753.474)">
    <path d="m0,-79.1c0,-13.41 -12.73,-20.23 -37.96,-20.23l-99.33,0l0,56.83l103.42,0c22.5,0 33.87,-5.46 33.87,-16.6l0,-20zm22.73,17.96c0,24.32 -19.55,37.05 -58.64,37.05l-56.6,0l97.74,42.73c4.09,2.04 5.91,4.77 5.91,8.18c0,5.68 -4.09,11.37 -10,11.37c-1.37,0 -2.96,-0.46 -4.55,-1.37l-133.88,-62.5l0,54.09c0,6.37 -3.86,9.78 -11.36,9.78c-7.96,0 -11.82,-3.41 -11.82,-9.78l0,-138.65c0,-4.77 2.5,-7.04 7.5,-7.04l111.6,0c42.73,0 64.1,12.95 64.1,39.32l0,16.82z" fill="rgb(140,198,63)" fill-rule="nonzero" id="svg_27"/>
   </g>
   <g id="svg_28" transform="matrix(1,0,0,1,833.077,723.021)">
    <path d="m0,49.09l-98.42,0c-25,0 -37.5,-6.81 -37.5,-19.77l0,-29.1l135.92,0c5.45,0 7.96,-3.18 7.96,-9.32c0,-6.36 -2.51,-9.31 -7.96,-9.31l-159.11,0l0,48.63c0,24.78 19.78,37.28 60.01,37.28l99.1,0c5.69,0 8.64,-3.17 8.64,-9.54c0,-5.91 -2.95,-8.87 -8.64,-8.87" fill="rgb(140,198,63)" fill-rule="nonzero" id="svg_29"/>
   </g>
   <g id="svg_30" transform="matrix(1,0,0,1,1026.51,723.021)">
    <path d="m0,49.09l-98.43,0c-25,0 -37.49,-6.81 -37.49,-19.77l0,-29.1l135.92,0c5.45,0 7.96,-3.18 7.96,-9.32c0,-6.36 -2.51,-9.31 -7.96,-9.31l-159.11,0l0,48.63c0,24.78 19.77,37.28 60.01,37.28l99.1,0c5.67,0 8.64,-3.17 8.64,-9.54c0,-5.91 -2.97,-8.87 -8.64,-8.87" fill="rgb(140,198,63)" fill-rule="nonzero" id="svg_31"/>
   </g>
   <g id="svg_32" transform="matrix(1,0,0,1,1246.52,650.281)">
    <path d="m0,125.92c0,10.46 -6.37,15.46 -13.87,15.46c-3.18,0 -7.27,-1.14 -10.68,-4.55l-136.6,-122.05l0,116.82c0,6.37 -3.64,9.78 -11.37,9.78c-7.5,0 -11.14,-3.41 -11.14,-9.78l0,-132.51c0,-9.55 7.05,-13.86 14.1,-13.86c4.32,0 8.41,1.13 11.82,4.54l135.24,119.56l0,-115.24c0,-6.14 3.86,-9.55 11.82,-9.55c7.5,0 10.68,3.41 10.68,9.55l0,131.83z" fill="rgb(140,198,63)" fill-rule="nonzero" id="svg_33"/>
   </g>
   <g id="svg_34" transform="matrix(-0.531989,-0.846751,-0.846751,0.531989,703.668,637.784)">
    <path d="m-7.87,-14.25c2.24,5.55 3.79,10.77 4.65,15.68l-4.65,2.92l-8.38,-13.33l8.38,-5.27z" fill="rgb(0,113,188)" fill-rule="nonzero" id="svg_35"/>
   </g>
   <g id="svg_36" transform="matrix(1,0,0,1,699.081,643.642)">
    <path d="m0,3.12l0,-3.12c-1.8,0.96 -3.48,2 -5.05,3.12l5.05,0z" fill="rgb(0,113,188)" fill-rule="nonzero" id="svg_37"/>
   </g>
   <g id="svg_38" transform="matrix(1,0,0,1,745.849,634.826)">
    <path d="m0,11.94l15.75,0l0,-11.94l-15.48,0c-0.09,0 -0.18,0 -0.27,0l0,11.94z" fill="rgb(0,113,188)" fill-rule="nonzero" id="svg_39"/>
   </g>
   <g id="svg_40" transform="matrix(1,0,0,1,766.688,634.826)">
    <path d="m0,11.94l19.77,0c-0.89,-7.62 -5.7,-11.94 -13.52,-11.94l-6.25,0l0,11.94z" fill="rgb(0,113,188)" fill-rule="nonzero" id="svg_41"/>
   </g>
   <g id="svg_42" transform="matrix(-0.601848,-0.79861,-0.79861,0.601848,723.407,638.115)">
    <path d="m-7.87,-15.79c3.27,4.6 6.12,9.02 8.53,13.29l-8.53,6.43l-9.48,-12.58l9.48,-7.14z" fill="rgb(0,113,188)" fill-rule="nonzero" id="svg_43"/>
   </g>
   <g id="svg_44" transform="matrix(0,1,1,0,782.549,647.934)">
    <path d="m3.92,-15.86l11.94,0l0,6.25c0,7.76 -4.42,12.67 -11.94,13.53l0,-19.78z" fill="rgb(0,113,188)" fill-rule="nonzero" id="svg_45"/>
   </g>
   <g id="svg_46" transform="matrix(1,0,0,1,699.081,663.796)">
    <path d="m0,-11.94l-10.87,0c-0.94,1.01 -1.83,2.07 -2.64,3.18l-6.42,8.76l19.93,0l0,-11.94z" fill="rgb(0,113,188)" fill-rule="nonzero" id="svg_47"/>
   </g>
   <g id="svg_48" transform="matrix(-1,0,0,1,1507.45,-184.348)">
    <rect fill="rgb(0,113,188)" height="11.94" id="svg_49" width="15.75" x="745.85" y="836.2"/>
   </g>
   <g id="svg_50" transform="matrix(-1,0,0,1,1424.09,-184.348)">
    <rect fill="rgb(0,113,188)" height="11.94" id="svg_51" width="15.75" x="704.17" y="836.2"/>
   </g>
   <g id="svg_52" transform="matrix(-1,0,0,1,1465.77,-184.348)">
    <rect fill="rgb(0,113,188)" height="11.94" id="svg_53" width="15.75" x="725.01" y="836.2"/>
   </g>
   <g id="svg_54" transform="matrix(-0.531965,-0.846767,-0.846767,0.531965,897.866,637.783)">
    <path d="m-7.87,-14.25c2.24,5.55 3.79,10.77 4.65,15.68l-4.66,2.92l-8.37,-13.33l8.38,-5.27z" fill="rgb(0,113,188)" fill-rule="nonzero" id="svg_55"/>
   </g>
   <g id="svg_56" transform="matrix(1,0,0,1,893.28,643.642)">
    <path d="m0,3.12l0,-3.12c-1.8,0.96 -3.48,2 -5.05,3.12l5.05,0z" fill="rgb(0,113,188)" fill-rule="nonzero" id="svg_57"/>
   </g>
   <g id="svg_58" transform="matrix(1,0,0,1,940.047,634.826)">
    <path d="m0,11.94l15.75,0l0,-11.94l-15.48,0c-0.09,0 -0.18,0 -0.27,0l0,11.94z" fill="rgb(0,113,188)" fill-rule="nonzero" id="svg_59"/>
   </g>
   <g id="svg_60" transform="matrix(1,0,0,1,960.886,634.826)">
    <path d="m0,11.94l19.77,0c-0.89,-7.62 -5.7,-11.94 -13.52,-11.94l-6.25,0l0,11.94z" fill="rgb(0,113,188)" fill-rule="nonzero" id="svg_61"/>
   </g>
   <g id="svg_62" transform="matrix(-0.601848,-0.79861,-0.79861,0.601848,917.605,638.115)">
    <path d="m-7.87,-15.79c3.27,4.6 6.12,9.02 8.53,13.29l-8.53,6.43l-9.48,-12.58l9.48,-7.14z" fill="rgb(0,113,188)" fill-rule="nonzero" id="svg_63"/>
   </g>
   <g id="svg_64" transform="matrix(0,1,1,0,976.747,647.934)">
    <path d="m3.92,-15.86l11.94,0l0,6.25c0,7.76 -4.42,12.67 -11.94,13.53l0,-19.78z" fill="rgb(0,113,188)" fill-rule="nonzero" id="svg_65"/>
   </g>
   <g id="svg_66" transform="matrix(1,0,0,1,893.28,663.796)">
    <path d="m0,-11.94l-10.87,0c-0.94,1.01 -1.83,2.07 -2.64,3.18l-6.42,8.76l19.93,0l0,-11.94z" fill="rgb(0,113,188)" fill-rule="nonzero" id="svg_67"/>
   </g>
   <g id="svg_68" transform="matrix(-1,0,0,1,1895.84,-184.348)">
    <rect fill="rgb(0,113,188)" height="11.94" id="svg_69" width="15.75" x="940.05" y="836.2"/>
   </g>
   <g id="svg_70" transform="matrix(-1,0,0,1,1812.49,-184.348)">
    <rect fill="rgb(0,113,188)" height="11.94" id="svg_71" width="15.75" x="898.37" y="836.2"/>
   </g>
   <g id="svg_72" transform="matrix(-1,0,0,1,1854.17,-184.348)">
    <rect fill="rgb(0,113,188)" height="11.94" id="svg_73" width="15.75" x="919.21" y="836.2"/>
   </g>
  </g>
 </g>
</svg>