<?xml version="1.0" encoding="utf-8"?>
<svg xmlns="http://www.w3.org/2000/svg" id="Component_47_2" data-name="Component 47 – 2" width="237.569" height="48" viewBox="0 0 237.569 48">
  <path id="Path_21" data-name="Path 21" d="M371.321,81.2a9.2,9.2,0,0,1,0-18.4,9.2,9.2,0,1,1,0,18.4m0-23.6a14.4,14.4,0,1,0,14.4,14.44,14.34,14.34,0,0,0-14.4-14.44" transform="translate(-300 -48)" style=""/>
  <path id="Path_22" data-name="Path 22" d="M446.276,57.8h-2.654a1.333,1.333,0,0,0-1.332,1.309V74.96a5.825,5.825,0,1,1-11.64-.04v-15.8a1.334,1.334,0,0,0-1.333-1.323h-2.654a1.333,1.333,0,0,0-1.333,1.333V75.2a11.141,11.141,0,0,0,22.28,0V59.133a1.333,1.333,0,0,0-1.334-1.333" transform="translate(-300 -48)" style=""/>
  <path id="Path_23" data-name="Path 23" d="M466.85,69.44c-3.24-1.32-4.72-2.6-4.72-4.48,0-1.28,1.24-2.8,3.52-2.8,1.817,0,4.207,1.364,5.165,1.952a1.349,1.349,0,0,0,.145.09,1.33,1.33,0,0,0,1.682-.37,1.587,1.587,0,0,0,.1-.148l1.16-1.74.069-.1a1.33,1.33,0,0,0-.318-1.733,1.165,1.165,0,0,0-.136-.093A14.057,14.057,0,0,0,465.89,57.6c-6.359,0-9,4.12-9,7.68,0,4.72,3.761,7.12,7.52,8.64,3.36,1.36,5.08,2.76,5.08,4.8,0,1.72-1.56,3.08-3.64,3.08-2.178,0-4.806-1.657-5.718-2.265h0a1.332,1.332,0,0,0-1.874.4l-.052.09-.981,1.689-.116.2a1.313,1.313,0,0,0-.128.567,1.327,1.327,0,0,0,.425.975l.081.07A13.1,13.1,0,0,0,466.01,86.4c5.64,0,9.2-3.8,9.2-7.92,0-5.16-4.48-7.48-8.36-9.04" transform="translate(-300 -48)" style=""/>
  <path id="Path_24" data-name="Path 24" d="M316.466,58H301.333A1.333,1.333,0,0,0,300,59.333V84.666A1.333,1.333,0,0,0,301.333,86h15.133a1.334,1.334,0,0,0,1.334-1.334V82.53a1.333,1.333,0,0,0-1.263-1.33H305.2v-7h9.439a1.334,1.334,0,0,0,1.2-1.292V70.62a1.331,1.331,0,0,0-1.254-1.26H305.2V62.8h11.368a1.332,1.332,0,0,0,1.232-1.328V59.333A1.333,1.333,0,0,0,316.466,58" transform="translate(-300 -48)" style=""/>
  <path id="Path_25" data-name="Path 25" d="M349.2,80.9l-1.486-1.533-.143-.149a1.331,1.331,0,0,0-1.59-.14c-.063.048-.126.1-.189.142a9.451,9.451,0,0,1-5.673,1.936,9.286,9.286,0,0,1-.04-18.56,9.449,9.449,0,0,1,5.726,2,1.3,1.3,0,0,0,.143.114,1.33,1.33,0,0,0,1.664-.141l.068-.07,1.483-1.531.214-.222a1.328,1.328,0,0,0-.143-1.783l-.1-.086a13.426,13.426,0,0,0-9.174-3.282,14.4,14.4,0,1,0,0,28.8,13.745,13.745,0,0,0,9.218-3.417,1.427,1.427,0,0,0,.136-.122,1.329,1.329,0,0,0,.092-1.745Z" transform="translate(-300 -48)" style=""/>
  <path id="Path_26" data-name="Path 26" d="M406.9,70.758h-6.52V62.8h6.52a3.979,3.979,0,0,1,3.96,3.88,4.074,4.074,0,0,1-3.96,4.08m8.215,13.181-4.995-9.261c3.48-1.4,5.919-4.4,5.919-8.08a8.663,8.663,0,0,0-8.719-8.6H396.455a1.333,1.333,0,0,0-1.333,1.334V84.665A1.333,1.333,0,0,0,396.455,86h2.535a1.333,1.333,0,0,0,1.332-1.295c0-.013,0-.025,0-.038s0-.026,0-.038V75.038h4.44L409.9,85.272l.019.038a1.332,1.332,0,0,0,1.1.688c.024,0,.047,0,.071,0s.046,0,.07,0H414a1.334,1.334,0,0,0,1.224-1.862,1.377,1.377,0,0,0-.106-.2" transform="translate(-300 -48)" style=""/>
  <path id="Path_27" data-name="Path 27" d="M537.569,71.952a24,24,0,0,0-48,0Z" transform="translate(-300 -48)" style=""/>
  <path id="Path_28" data-name="Path 28" d="M537.089,76.8a24.024,24.024,0,0,0,.366-2.448H489.683a24.017,24.017,0,0,0,.367,2.448Z" transform="translate(-300 -48)" style=""/>
  <path id="Path_29" data-name="Path 29" d="M535.57,81.6a23.791,23.791,0,0,0,.9-2.4h-45.8a23.791,23.791,0,0,0,.9,2.4Z" transform="translate(-300 -48)" style=""/>
  <path id="Path_30" data-name="Path 30" d="M532.769,86.4a23.952,23.952,0,0,0,1.588-2.4H492.781a24.127,24.127,0,0,0,1.588,2.4Z" transform="translate(-300 -48)" style=""/>
  <path id="Path_31" data-name="Path 31" d="M527.961,91.2a24.3,24.3,0,0,0,2.746-2.4H496.432a24.2,24.2,0,0,0,2.745,2.4Z" transform="translate(-300 -48)" style=""/>
  <path id="Path_32" data-name="Path 32" d="M524.068,93.6h-21c.18.082.362.162.544.24h-.006a24.057,24.057,0,0,0,19.926,0h-.008c.182-.078.364-.158.544-.24" transform="translate(-300 -48)" style=""/>
</svg>