<?xml version="1.0" encoding="utf-8"?>
<svg version="1.1" id="Ebene_1" xmlns="http://www.w3.org/2000/svg" x="0px" y="0px" viewBox="0 0 596.383 297.277" style="enable-background:new 0 0 1041 305;">
  <style type="text/css">
  header#main-header .logo svg {
    height: 105px;
    width: calc( 105px / 305 * 1041 );
  }

  @media (min-width: 320px) {
    header#main-header .logo svg {
      height: 7.05vw;
      width: calc( 7.05vw / 305 * 1041 );
    }
}
  .st0{fill:#FFFFFF;}
  .st1{fill:none;}
  .st2{font-family:'light';}
  .st3{font-size:65.8147px;}
  .st4{font-family:'medium';}
</style>
  <path class="st0" d="M60,58.9v118.9h24.3v-50.7h40.1v-19.5H84.3V79.3H126V58.9H60L60,58.9z M166.8,58.9l-47,118.9h25.3l10.1-27.1 h49.4l10.3,27.1h26.3L193.7,58.9H166.8L166.8,58.9z M172.7,102.9c1.3-3.9,2.5-7.6,3.7-11.3c1.3-4,2.4-8.1,3.5-12.3 c1.2,4.5,2.5,8.9,3.9,13.3c1.2,3.9,2.5,7.7,3.7,11.6l9.6,27.3h-34.5L172.7,102.9L172.7,102.9z M249.7,58.9v118.9h22.4V75.1 c1,3.5,2,7.2,3,10.9c1.2,4.2,2.5,8.4,3.9,12.8l26.3,79h22.6l28.8-85.1c1.2-3.7,2.4-7.6,3.5-11.3c0.7-2.7,1.5-5.2,2.2-7.9l-1.2,104.3 h23.9V58.9h-38.6L328,115.3l-5.6,17.7c-2,5.9-3.5,11.8-5.1,17.9c-0.5-2.5-1.2-5.1-1.9-7.6c-1.3-5.2-2.9-10.4-4.5-15.7 c-2-7.1-4-14.1-6.4-21.2c-2-6.4-4.2-12.8-6.4-19l-9.6-28.5L249.7,58.9L249.7,58.9z M411.2,58.9v118.9h24.1V58.9H411.2L411.2,58.9z M525.2,60.9c-10.9-2.7-17.2-4-28.5-4c-4.4,0-20-0.3-31.5,10.1c-9.8,8.9-10.3,20.4-10.3,24.9c0,13.5,6.4,22.2,17.9,28.5 c5.7,3,11.8,5.4,17.9,7.7c8.9,3.7,12.8,5.6,15.2,9.9c0.7,1.2,1.9,3.4,1.9,6.6c0,1.2-0.2,4-1.9,6.9c-5.1,8.9-16.8,8.8-19,8.8 c-6.1,0-15.2-1.7-20.7-4c-2.2-0.8-4.2-2-6.4-3.2l-2,21.6c11.8,3.2,18.7,4.7,31.2,4.7c6.2,0,12.8-0.5,18.9-2.4 c15.3-4.9,25.1-17.7,25.1-33.9c0-19.7-13.6-27.5-19.9-30.7c-5.1-2.7-10.4-4.5-15.7-6.6c-6.6-2.5-10.4-4.2-13-6.2 c-4.2-3.4-4.7-7.7-4.7-9.8c0-3.2,1-5.6,1.7-6.6c4.5-8.3,17.7-7.9,18.7-7.9c8.1-0.2,15.5,2.2,18,3c1.7,0.7,3.4,1.5,5.1,2.2 L525.2,60.9L525.2,60.9z" style="fill: rgb(0, 0, 0);"/>
  <path class="st0" d="M60,196.9v44.6h472.6v-44.6H60z" style="fill: rgb(0, 0, 0);"/>
</svg>