<?xml version="1.0" encoding="utf-8"?>
<svg xmlns="http://www.w3.org/2000/svg" width="109" height="32" viewBox="0 0 109 32" fill="none">
  <path d="M16.8364 7.66662e-05V1.69921C24.3373 2.13807 30.3048 8.37868 30.3048 15.9888C30.3048 23.8832 23.8833 30.3047 15.9888 30.3047C8.3786 30.3047 2.13799 24.3372 1.69914 16.8365H0C0.440838 25.2735 7.44432 32 15.9888 32C24.8176 32 32 24.8175 32 15.9888C32 7.44439 25.2734 0.440915 16.8364 7.66662e-05Z" style="fill: rgb(0, 0, 0);"/>
  <path d="M15.1411 1.69914V0C6.98471 0.427685 0.427727 6.98481 4.22851e-05 15.1411H1.69918C2.12107 7.92093 7.92097 2.12102 15.1411 1.69914Z" style="fill: rgb(0, 0, 0);"/>
  <path d="M16.0188 4.34008C9.57857 4.34008 4.33999 9.57865 4.33999 16.019C4.33999 22.1748 9.12458 27.2305 15.1713 27.6676V25.9666C10.0627 25.5352 6.03532 21.2367 6.03532 16.019C6.03532 10.5148 10.5147 6.0354 16.0188 6.0354C21.2367 6.0354 25.5352 10.0628 25.9666 15.1713H27.6676C27.2306 9.12466 22.1748 4.34008 16.0188 4.34008Z" style="fill: rgb(0, 0, 0);"/>
  <path d="M16.8666 25.9666V27.6675C22.6325 27.2512 27.2513 22.6325 27.6676 16.8666H25.9666C25.5579 21.6963 21.6963 25.5579 16.8666 25.9666Z" style="fill: rgb(0, 0, 0);"/>
  <path d="M16.8364 8.46911V10.1796C19.6732 10.5901 21.8602 13.0389 21.8602 15.9888C21.8602 19.2268 19.2269 21.8603 15.9889 21.8603C13.0389 21.8603 10.5902 19.6732 10.1795 16.8364H8.46918C8.89304 20.6113 12.1028 23.5555 15.9889 23.5555C20.1612 23.5555 23.5555 20.1611 23.5555 15.9888C23.5555 12.1027 20.6113 8.89297 16.8364 8.46911Z" style="fill: rgb(0, 0, 0);"/>
  <path d="M15.1412 10.1795V8.46902C11.645 8.86093 8.86095 11.645 8.46918 15.1411H10.1795C10.5506 12.5793 12.5793 10.5506 15.1412 10.1795Z" style="fill: rgb(0, 0, 0);"/>
  <path d="M47.9547 18.9873V5.17399H44.8V21.9029H56.558V18.9873H47.9547Z" style="fill: rgb(0, 0, 0);"/>
  <path d="M66.2368 10.1209L59.2787 26.8168H59.071L59.0674 26.826H62.2698L69.4632 10.1209H66.2368Z" style="fill: rgb(0, 0, 0);"/>
  <path d="M61.7146 15.1286L59.9515 10.121H56.5581L60.1465 18.956L61.7146 15.1286Z" style="fill: rgb(0, 0, 0);"/>
  <path d="M77.5887 9.92974C76.1069 9.92974 74.9121 10.5272 73.7172 11.6983L73.5259 10.097H70.921V21.9028H73.8127V15.8804C73.8127 14.088 75.0316 12.5824 76.8239 12.5824C78.6881 12.5824 79.6679 13.9446 79.6679 15.7371V21.9028H82.5834V15.7131C82.5834 12.0089 80.3609 9.92974 77.5887 9.92974Z" style="fill: rgb(0, 0, 0);"/>
  <path d="M93.4571 10.1209V16.1433C93.4571 17.9357 92.2384 19.4413 90.4459 19.4413C88.5818 19.4413 87.602 18.0791 87.602 16.2867V10.1209H84.6864V16.3106C84.6864 19.9672 86.7416 22.094 89.5617 22.094C91.2106 22.094 92.3339 21.5205 93.5527 20.3256L93.7439 21.9267H96.3489V10.1209H93.4571Z" style="fill: rgb(0, 0, 0);"/>
  <path d="M103.757 14.6617C102.252 14.566 101.559 14.136 101.559 13.3712C101.559 12.6304 102.323 12.2002 103.71 12.2002C104.833 12.2002 105.789 12.4631 106.625 13.2516L108.25 11.3398C106.888 10.145 105.502 9.78637 103.662 9.78637C101.511 9.78637 98.6909 10.7423 98.6909 13.4669C98.6909 16.1435 101.344 16.956 103.566 17.1233C105.239 17.2188 105.908 17.5534 105.908 18.3659C105.908 19.2264 104.881 19.7999 103.781 19.7759C102.467 19.7521 100.555 19.0591 99.7186 18.127L98.2847 20.2062C100.005 21.9985 101.87 22.3092 103.733 22.3092C107.103 22.3092 108.8 20.5167 108.8 18.4376C108.8 15.307 105.98 14.8052 103.757 14.6617Z" style="fill: rgb(0, 0, 0);"/>
</svg>