<svg xmlns="http://www.w3.org/2000/svg" width="238" height="25" viewBox="0 0 238 25"><title>logo_solarmarkt_without_claim</title><path d="M8.947,24.9C4.1,24.9,1.308,23.24.1,19.773c-.141-.389-.148-.542.1-.649l3.457-1.791c.218-.11.292-.1.393.177a4.731,4.731,0,0,0,4.8,3.039c2.459-.044,4.162-.874,4.162-2.5,0-1.448-1.574-3.046-4.849-3.42-.259-.027-.577-.06-.858-.1C3.8,13.986.871,11.979.737,7.921c-.151-4.6,2.4-7.81,8.708-7.81,4.735,0,7.455,2.236,8.582,5.194.142.378-.038.532-.251.6L13.821,7.528c-.249.106-.348.029-.416-.147-.544-1.418-1.642-3.339-4.2-3.224-2.6.121-3.633,1.159-3.862,2.706-.316,2.128,1.568,3.117,5.1,3.527.318.035.711.106,1.175.176,4.558.636,6.967,3.083,6.967,6.768,0,5.446-4.047,7.564-9.637,7.564" style="fill-rule:evenodd"/><path d="M33.817,25c-7.248,0-12.742-5.147-12.742-12.132S26.569.7,33.817.7s12.74,5.183,12.74,12.168S41.067,25,33.817,25m0-19.53c-4.3,0-6.855,3.727-6.855,7.4,0,4.188,2.978,7.344,6.855,7.344,4.08,0,6.892-3.335,6.892-7.456a7.023,7.023,0,0,0-6.754-7.282l-.138,0" style="fill-rule:evenodd"/><path d="M65.348,24.835H50.767c-.318,0-.318.035-.318-.32V1.173c0-.353,0-.318.318-.318h4.8c.285,0,.32.034.32.318v19l9.424-.115c.284,0,.32.07.32.354v4.106c0,.282,0,.32-.287.32" style="fill-rule:evenodd"/><path d="M143.476.82c-.037-.248-.506-.3-.614-.333a.331.331,0,0,0-.285.14c-2.891,3.45-8.9,10.624-10.458,12.426C130.489,11.189,124.6,4.02,121.662.627a.333.333,0,0,0-.285-.14c-.1.034-.574.085-.61.333-.071,7.192-.161,16.234-.231,23.8,0,.32,0,.215.32.215h4.375c.356,0,.391-.038.391-.5l.021-11.821s4.843,4.921,6.233,6.337c.1.1.173.166.24.171h0c.072,0,.139-.07.244-.171,1.389-1.416,6.23-6.337,6.23-6.337l.021,11.821c0,.46.035.5.39.5h4.374c.322,0,.322.105.322-.215-.071-7.566.093-16.727-.228-23.8" style="fill-rule:evenodd"/><path d="M169.806,24.835h-5.212a.4.4,0,0,1-.427-.285c-.426-.954-1.087-2.744-1.443-3.629h-9.306c-.427.993-1.043,2.675-1.4,3.526-.107.279-.178.388-.641.388h-4.946c-.285,0-.318-.142-.178-.5,3.7-7.814,8.847-19.1,11.624-24.259.038-.071.217-.071.429-.071s.39-.036.428.071c3.24,6.293,7.294,16.445,11.211,24.259.212.46.178.5-.14.5M157.951,9.99l-2.905,6.815h5.915l-3.01-6.815" style="fill-rule:evenodd"/><path d="M91.548,24.835H86.34a.4.4,0,0,1-.429-.285c-.428-.954-1.088-2.744-1.443-3.629H75.163c-.428.993-1.045,2.675-1.4,3.526-.108.279-.18.388-.642.388H68.177c-.285,0-.32-.142-.18-.5C71.7,16.523,76.846,5.24,79.623.078c.038-.071.216-.071.427-.071s.393-.036.428.071C83.72,6.371,87.772,16.523,91.69,24.337c.214.46.179.5-.142.5M79.694,9.99l-2.9,6.815H82.71L79.694,9.99" style="fill-rule:evenodd"/><path d="M193.143,24.835h-5.335c-.284,0-.43-.072-.75-.709-1.21-2.3-3.811-6.367-3.811-6.367l-5.061.073v6.683c0,.282-.035.32-.282.32h-4.876c-.284,0-.284.035-.284-.32V1.654c0-.355.177-.32.284-.32h10.556c5.486,0,7.854,3.269,7.854,7.618,0,3.256-1.071,5.553-3.244,6.579.926,1.45,2.955,5.025,5.021,8.346.426.708.32.958-.072.958M182.678,6.123h-4.492v6.934l4.529-.106a3.485,3.485,0,0,0,3.473-3.5V9.413a3.3,3.3,0,0,0-3.3-3.3q-.1,0-.21.006" style="fill-rule:evenodd"/><path d="M116,24.835h-5.337c-.282,0-.429-.072-.748-.709-1.211-2.3-3.811-6.367-3.811-6.367l-5.063.073v6.683c0,.282-.034.32-.282.32H95.885c-.285,0-.285.035-.285-.32V1.654c0-.355.176-.32.285-.32H106.44c5.486,0,7.854,3.269,7.854,7.618,0,3.256-1.071,5.553-3.243,6.579.923,1.45,2.955,5.025,5.02,8.346.427.708.32.958-.071.958M105.534,6.123h-4.493v6.934l4.531-.106a3.486,3.486,0,0,0,3.473-3.5V9.413a3.3,3.3,0,0,0-3.3-3.3c-.071,0-.141,0-.211.006" style="fill-rule:evenodd"/><path d="M215.539,24.835h-4.513c-.285,0-.251-.072-.465-.426-1.1-2.124-5.294-9.566-5.294-9.566l-3.042,4.844v4.828c0,.282-.036.32-.322.32h-4.8c-.322,0-.322.035-.322-.32V1.173c0-.353,0-.318.322-.318h4.8c.286,0,.322.034.322.318v11.57s5.858-8.458,7.817-11.676a.456.456,0,0,1,.426-.212h4.573c.355,0,.426.1.213.423-2.385,3.221-6.881,9.67-6.881,9.67s5.193,9.455,7.416,13.386c.231.413.071.5-.25.5" style="fill-rule:evenodd"/><path d="M237.753,5.539l-6.574-.07V24.515c0,.282-.034.317-.32.317h-4.912c-.353,0-.353.038-.353-.317V5.469l-6.752.07c-.246,0-.246-.037-.246-.246V1.209c0-.281,0-.354.281-.354h18.84c.249,0,.283.073.283.354V5.3c0,.209-.034.246-.247.246" style="fill-rule:evenodd"/></svg>