<?xml version="1.0" encoding="UTF-8"?>
<!-- Generator: Adobe Illustrator 13.0.2, SVG Export Plug-In  -->
<!DOCTYPE svg PUBLIC "-//W3C//DTD SVG 1.1//EN" "http://www.w3.org/Graphics/SVG/1.1/DTD/svg11.dtd">
<svg version="1.1" xmlns="http://www.w3.org/2000/svg" xmlns:xlink="http://www.w3.org/1999/xlink" xmlns:a="http://ns.adobe.com/AdobeSVGViewerExtensions/3.0/" x="0px" y="0px" width="124px" height="19px" viewBox="9.072 7.321 124 19" enable-background="new 9.072 7.321 124 19" xml:space="preserve">
<defs>
</defs>
<g>
	<g>
		<defs>
			<rect id="SVGID_1_" width="208.347" height="75.321"/>
		</defs>
		<clipPath id="SVGID_2_">
			<use xlink:href="#SVGID_1_" overflow="visible"/>
		</clipPath>
		<path clip-path="url(#SVGID_2_)" d="M21.939,11.507h-3.152c0,0-2.967,7.253-3.161,7.726c-0.187-0.476-3.045-7.726-3.045-7.726    H9.258l4.875,10.862h3.102l4.876-10.862H21.939z"/>
		<path clip-path="url(#SVGID_2_)" fill="#0078AB" d="M72.019,14.916c0.268-2.705,2.126-3.758,5.368-3.758    c2.209,0,4.975,0.558,4.975,3.076v5.822c0,0.64,0.289,0.929,0.929,0.929c0.228,0,0.746-0.041,0.952-0.082v1.445    c-0.495,0.082-1.344,0.124-1.84,0.124c-1.032,0-1.713-0.289-1.858-1.508c-0.825,1.115-2.849,1.755-4.604,1.755    c-3.592,0-4.397-1.858-4.397-3.263c0-1.98,1.178-2.993,4.646-3.364l2.354-0.247c1.156-0.124,1.878-0.331,1.878-1.302    c0-1.485-1.444-1.774-3.116-1.774c-1.775,0-3.283,0.474-3.345,2.146H72.019z M80.42,16.691c-0.309,0.351-0.866,0.496-2.022,0.64    l-2.333,0.289c-1.61,0.207-2.457,0.641-2.457,1.775c0,1.012,1.012,1.714,2.519,1.714c2.333,0,4.294-1.239,4.294-3.035V16.691z"/>
		<path clip-path="url(#SVGID_2_)" fill="#0078AB" d="M107.561,11.53h2.063v1.631h0.042c0.969-1.507,2.684-2.003,4.232-2.003    c2.601,0,4.541,1.115,4.541,3.82v7.37h-2.064v-6.957c0-1.59-0.99-2.498-3.2-2.498c-1.879,0-3.551,1.094-3.551,3.22v6.235h-2.063    V11.53z"/>
		<path clip-path="url(#SVGID_2_)" fill="#0078AB" d="M122.32,17.559c0.165,2.229,2.146,3.427,3.985,3.427    c1.177,0,2.786-0.392,3.488-1.92h2.188c-1.032,2.602-3.447,3.654-5.574,3.654c-4.212,0-6.276-2.663-6.276-5.78    s2.064-5.781,6.276-5.781c2.849,0,5.863,1.652,5.863,6.132v0.269H122.32z M130.082,15.948c-0.309-1.961-1.837-3.055-3.776-3.055    c-1.9,0-3.613,1.114-3.924,3.055H130.082z"/>
		<rect x="103.328" y="11.531" clip-path="url(#SVGID_2_)" fill="#0078AB" width="2.065" height="10.817"/>
		<path clip-path="url(#SVGID_2_)" fill="#0078AB" d="M95.751,11.282c-1.589,0-3.303,0.62-4.107,1.755h-0.041V11.53h-2.065v14.491    h2.065v-5.057h0.041c0.826,1.178,2.498,1.755,4.107,1.755c3.263,0,5.884-2.085,5.884-5.719S99.014,11.282,95.751,11.282     M95.483,20.985c-2.416,0-4.005-1.507-4.005-3.984c0-2.044,1.196-3.983,4.005-3.983c2.787,0,3.964,1.939,3.964,3.983    C99.447,19.479,97.878,20.985,95.483,20.985"/>
		<rect x="85.089" y="7.816" clip-path="url(#SVGID_2_)" fill="#0078AB" width="2.065" height="14.532"/>
		<rect x="103.328" y="7.816" clip-path="url(#SVGID_2_)" fill="#0078AB" width="2.065" height="2.213"/>
		<path clip-path="url(#SVGID_2_)" d="M28.563,11.103c-4.853,0-6.581,3.006-6.581,5.818c0,2.813,1.729,5.819,6.581,5.819    c4.852,0,6.581-3.006,6.581-5.819C35.145,14.108,33.415,11.103,28.563,11.103 M28.563,20.395c-2.204,0-3.521-1.298-3.521-3.474    c0-2.175,1.316-3.473,3.521-3.473s3.52,1.298,3.52,3.473C32.083,19.097,30.768,20.395,28.563,20.395"/>
		<path clip-path="url(#SVGID_2_)" d="M46.135,19.032l-0.008,0.014c-0.438,0.727-1.141,1.469-3.022,1.469    c-2.363,0-3.313-1.472-3.426-2.78h9.849v-0.512c0-3.832-2.438-6.12-6.522-6.12c-3.83,0-6.402,2.379-6.402,5.919    c0,2.765,1.729,5.719,6.581,5.719c4.299,0,5.65-2.699,6.096-3.586l0.061-0.122H46.135z M43.045,13.208    c1.396,0,2.99,0.663,3.376,2.488h-6.704C40.194,13.872,41.732,13.208,43.045,13.208"/>
		<path clip-path="url(#SVGID_2_)" d="M56.876,15.589c-2.613-0.379-2.786-0.513-2.786-1.271c0-0.448,0.718-1.11,2.258-1.11    c1.189,0,2.644,0.287,2.847,1.645h3.063c-0.114-2.453-2.11-3.75-5.771-3.75c-1.605,0-5.339,0.345-5.339,3.536    c0,2.547,1.816,2.918,5.027,3.354c3.028,0.413,3.299,0.693,3.299,1.392c0,0.923-1.472,1.25-2.731,1.25    c-0.783,0-2.576-0.163-2.754-1.603H50.8c0.178,3.059,3.328,3.708,5.963,3.708c3.854,0,5.89-1.292,5.89-3.736    C62.652,16.433,60.229,16.078,56.876,15.589"/>
		<path clip-path="url(#SVGID_2_)" d="M70.602,13.544v-2.003h-2.784V7.789h-0.642h-2.242v3.752h-2.063v2.003h2.063v5.76    c0,2.002,0.252,3.314,3.607,3.314c0.771,0,1.153-0.054,1.786-0.143l0.219-0.03v-2.216l-0.4,0.013l-1.47,0.03    c-0.78,0-0.858-0.512-0.858-1.771v-4.957H70.602z"/>
	</g>
</g>
</svg>